<svg id="Layer_1" data-name="Layer 1" xmlns="http://www.w3.org/2000/svg" xmlns:xlink="http://www.w3.org/1999/xlink" viewBox="0 0 2299.9 1635.56"><defs><style>.cls-1{fill:none;}.cls-2{fill:#145fac;}.cls-3{clip-path:url(#clip-path);}.cls-4{opacity:0.3;}.cls-5{fill:#013b56;}.cls-6{fill:#003042;}.cls-7{fill:#02282d;}.cls-8{fill:#00303e;}.cls-9{fill:#0b3e61;}.cls-10{fill:#003142;}.cls-11{fill:#093948;}.cls-12{fill:#063a4d;}.cls-13{fill:#00324a;}.cls-14{fill:#0c2e4e;}.cls-15{fill:#032a2f;}.cls-16{fill:#093741;}.cls-17{fill:#063958;}.cls-18{fill:#092d4c;}.cls-19{fill:#003243;}.cls-20{fill:#033753;}.cls-21{fill:#033652;}.cls-22{fill:#002d40;}.cls-23{fill:#002a39;}.cls-24{fill:#09314e;}.cls-25{fill:#08304e;}.cls-26{fill:#052f37;}.cls-27{fill:#00364e;}.cls-28{fill:#003850;}.cls-29{fill:#072127;}.cls-30{fill:#062427;}.cls-31{fill:#0d3556;}.cls-32{fill:#0f2e4f;}.cls-33{fill:#083339;}.cls-34{fill:#093239;}.cls-35{fill:#002830;}.cls-36{fill:#022f37;}.cls-37{fill:#002931;}.cls-38{fill:#0b3c4a;}.cls-39{fill:#02243f;}.cls-40{fill:#093453;}.cls-41{fill:#052744;}.cls-42{fill:#003343;}.cls-43{fill:#072232;}.cls-44{fill:#06405c;}.cls-45{fill:#012f49;}.cls-46{fill:#0a4052;}.cls-47{fill:#002d3a;}.cls-48{fill:#012633;}.cls-49{fill:#012e48;}.cls-50{fill:#134b62;}.cls-51{fill:#074465;}.cls-52{fill:#00283b;}.cls-53{fill:#003249;}.cls-54{fill:#002a30;}.cls-55{fill:#063037;}.cls-56{fill:#06222a;}.cls-57{fill:#093b49;}.cls-58{fill:#12404f;}.cls-59{fill:#032c32;}.cls-60{fill:#062325;}.cls-61{fill:#0e395c;}.cls-62{fill:#0b486c;}.cls-63{fill:#083352;}.cls-64{fill:#0b3b5c;}.cls-65{fill:#023848;}.cls-66{fill:#054058;}.cls-67{fill:#124b64;}.cls-68{fill:#002f3e;}.cls-69{fill:#002c3d;}.cls-70{fill:#00394c;}.cls-71{fill:#053d56;}.cls-72{fill:#083553;}.cls-73{fill:#104c71;}.cls-74{fill:#125075;}.cls-75{fill:#0e3354;}.cls-76{fill:#072040;}.cls-77{fill:#012c33;}.cls-78{fill:#09343a;}.cls-79{fill:#053d4e;}.cls-80{fill:#07212c;}.cls-81{fill:#022d32;}.cls-82{fill:#022e33;}.cls-83{fill:#023039;}.cls-84{fill:#114250;}.cls-85{fill:#024161;}.cls-86{fill:#073553;}.cls-87{fill:#003853;}.cls-88{fill:#033442;}.cls-89{fill:#002a36;}.cls-90{fill:#1e5b77;}.cls-91{fill:#2d687b;}.cls-92{fill:#0d4965;}.cls-93{fill:#10507a;}.cls-94{fill:#06456a;}.cls-95{fill:#1a597f;}.cls-96{fill:#185883;}.cls-97{fill:#17494e;}.cls-98{fill:#073a43;}.cls-99{fill:#06242a;}.cls-100{fill:#194a58;}.cls-101{fill:#124552;}.cls-102{fill:#064051;}.cls-103{fill:#003545;}.cls-104{fill:#09496a;}.cls-105{fill:#0a4268;}.cls-106{fill:#153258;}.cls-107{fill:#024262;}.cls-108{fill:#073756;}.cls-109{fill:#12506f;}.cls-110{fill:#02405a;}.cls-111{fill:#064762;}.cls-112{fill:#0e414d;}.cls-113{fill:#033137;}.cls-114{fill:#115069;}.cls-115{fill:#074960;}.cls-116{fill:#05343a;}.cls-117{fill:#012a30;}.cls-118{fill:#02313a;}.cls-119{fill:#01323b;}.cls-120{fill:#073b49;}.cls-121{fill:#003642;}.cls-122{fill:#002a31;}.cls-123{fill:#03425e;}.cls-124{fill:#053941;}.cls-125{fill:#01363e;}.cls-126{fill:#0f4068;}.cls-127{fill:#054870;}.cls-128{fill:#0e4169;}.cls-129{fill:#0e3b5f;}.cls-130{fill:#004669;}.cls-131{fill:#0c4e70;}.cls-132{fill:#0c4f72;}.cls-133{fill:#123b62;}.cls-134{fill:#00435b;}.cls-135{fill:#135a77;}.cls-136{fill:#08424e;}.cls-137{fill:#012f35;}.cls-138{fill:#0b527d;}.cls-139{fill:#0f444e;}.cls-140{fill:#083c44;}.cls-141{fill:#08465a;}.cls-142{fill:#074062;}.cls-143{fill:#074d71;}.cls-144{fill:#034861;}.cls-145{fill:#105871;}.cls-146{fill:#013135;}.cls-147{fill:#124753;}.cls-148{fill:#02455f;}.cls-149{fill:#175263;}.cls-150{fill:#084657;}.cls-151{fill:#003d4c;}.cls-152{fill:#034263;}.cls-153{fill:#08597f;}.cls-154{fill:#14385f;}.cls-155{fill:#10416b;}.cls-156{fill:#004b75;}.cls-157{fill:#02333a;}.cls-158{fill:#043b42;}.cls-159{fill:#003337;}.cls-160{fill:#063e47;}.cls-161{fill:#114069;}.cls-162{fill:#0d5782;}.cls-163{fill:#004f79;}.cls-164{fill:#094856;}.cls-165{fill:#074551;}.cls-166{fill:#0f5c82;}.cls-167{fill:#004e71;}.cls-168{fill:#0f638c;}.cls-169{fill:#0d587b;}.cls-170{fill:#0f5a6d;}.cls-171{fill:#0a5368;}.cls-172{fill:#025471;}.cls-173{fill:#0e5d80;}.cls-174{fill:#0e5c75;}.cls-175{fill:#1b697a;}.cls-176{fill:#11525e;}.cls-177{fill:#10648e;}.cls-178{fill:#0c618b;}.cls-179{fill:#126695;}.cls-180{fill:#0e628c;}.cls-181{fill:#0c607f;}.cls-182{fill:#055674;}.cls-183{fill:#085b74;}.cls-184{fill:#094650;}.cls-185{fill:#104f5b;}.cls-186{fill:#005080;}.cls-187{fill:#095e8c;}.cls-188{fill:#055786;}.cls-189{fill:#005482;}.cls-190{fill:#065f88;}.cls-191{fill:#093e46;}.cls-192{fill:#0b444a;}.cls-193{fill:#023d45;}.cls-194{fill:#044248;}.cls-195{fill:#167199;}.cls-196{fill:#08648a;}.cls-197{fill:#096189;}.cls-198{fill:#09608b;}.cls-199{fill:#126c8d;}.cls-200{fill:#096689;}.cls-201{fill:#0a5a6b;}.cls-202{fill:#035b8b;}.cls-203{fill:#09568b;}.cls-204{fill:#104470;}.cls-205{fill:#0c5a8b;}.cls-206{fill:#173962;}.cls-207{fill:#005281;}.cls-208{fill:#004e7b;}.cls-209{fill:#076180;}.cls-210{fill:#075f7a;}.cls-211{fill:#1f76a0;}.cls-212{fill:#0f6c9c;}.cls-213{fill:#105b69;}.cls-214{fill:#095460;}.cls-215{fill:#084953;}.cls-216{fill:#0f7097;}.cls-217{fill:#096b8d;}.cls-218{fill:#114676;}.cls-219{fill:#10525a;}.cls-220{fill:#157491;}.cls-221{fill:#0e6178;}.cls-222{fill:#045b6d;}.cls-223{fill:#00578a;}.cls-224{fill:#126ca4;}.cls-225{fill:#005280;}.cls-226{fill:#01608a;}.cls-227{fill:#046796;}.cls-228{fill:#005f85;}.cls-229{fill:#0b7097;}.cls-230{fill:#125c67;}.cls-231{fill:#055967;}.cls-232{fill:#086474;}.cls-233{fill:#11606c;}.cls-234{fill:#06515f;}.cls-235{fill:#0b4e53;}.cls-236{fill:#05464d;}.cls-237{fill:#176572;}.cls-238{fill:#014248;}.cls-239{fill:#368082;}.cls-240{fill:#0f748f;}.cls-241{fill:#016794;}.cls-242{fill:#026592;}.cls-243{fill:#056176;}.cls-244{fill:#0a728a;}.cls-245{fill:#1271a9;}.cls-246{fill:#076a9b;}.cls-247{fill:#0a6d9d;}.cls-248{fill:#00568e;}.cls-249{fill:#0f69a0;}.cls-250{fill:#46aac2;}.cls-251{fill:#1a82ac;}.cls-252{fill:#298098;}.cls-253{fill:#147284;}.cls-254{fill:#005f8f;}.cls-255{fill:#066497;}.cls-256{fill:#1473ac;}.cls-257{fill:#097797;}.cls-258{fill:#1a88ad;}.cls-259{fill:#0d76a6;}.cls-260{fill:#167db2;}.cls-261{fill:#095157;}.cls-262{fill:#2286c4;}.cls-263{fill:#096d80;}.cls-264{fill:#1d84a4;}.cls-265{fill:#249bca;}.cls-266{fill:#1c92bf;}.cls-267{fill:#0b68a4;}.cls-268{fill:#1076ad;}.cls-269{fill:#0b649b;}.cls-270{fill:#1e94ca;}.cls-271{fill:#1187b6;}.cls-272{fill:#1182ba;}.cls-273{fill:#126876;}.cls-274{fill:#1b6f80;}.cls-275{fill:#1490be;}.cls-276{fill:#05789b;}.cls-277{fill:#1084a5;}.cls-278{fill:#0c7388;}.cls-279{fill:#11788a;}.cls-280{fill:#1d717e;}.cls-281{fill:#25727f;}.cls-282{fill:#044c52;}.cls-283{fill:#0f5a62;}.cls-284{fill:#034349;}.cls-285{fill:#044146;}.cls-286{fill:#00639b;}.cls-287{fill:#0a75aa;}.cls-288{fill:#1582ba;}.cls-289{fill:#1189ba;}.cls-290{fill:#118fbe;}.cls-291{fill:#1084a6;}.cls-292{fill:#1b88a2;}.cls-293{fill:#1088a7;}.cls-294{fill:#0b565e;}.cls-295{fill:#0f86b9;}.cls-296{fill:#086da8;}.cls-297{fill:#03555c;}.cls-298{fill:#055559;}.cls-299{fill:#0e86bd;}.cls-300{fill:#1389c1;}.cls-301{fill:#0265a1;}.cls-302{fill:#157b8e;}.cls-303{fill:#1078b2;}.cls-304{fill:#137f95;}.cls-305{fill:#077083;}.cls-306{fill:#1287a3;}.cls-307{fill:#0b6370;}.cls-308{fill:#056273;}.cls-309{fill:#1387c2;}.cls-310{fill:#036ea6;}.cls-311{fill:#0c7ab5;}.cls-312{fill:#00639d;}.cls-313{fill:#2e868a;}.cls-314{fill:#0885a4;}.cls-315{fill:#026272;}.cls-316{fill:#23a5cf;}.cls-317{fill:#25a8d7;}.cls-318{fill:#1393c1;}.cls-319{fill:#0c87b4;}.cls-320{fill:#1293ca;}.cls-321{fill:#0683bb;}.cls-322{fill:#186e7b;}.cls-323{fill:#1c7280;}.cls-324{fill:#096571;}.cls-325{fill:#136a78;}.cls-326{fill:#158eca;}.cls-327{fill:#0b7fb7;}.cls-328{fill:#1185bf;}.cls-329{fill:#036ea9;}.cls-330{fill:#198dc8;}.cls-331{fill:#137eb8;}.cls-332{fill:#1b98d5;}.cls-333{fill:#148dc9;}.cls-334{fill:#0071ac;}.cls-335{fill:#006ba4;}.cls-336{fill:#046ca6;}.cls-337{fill:#178aa2;}.cls-338{fill:#0f798d;}.cls-339{fill:#058fc2;}.cls-340{fill:#0d8cc4;}.cls-341{fill:#0c5b62;}.cls-342{fill:#176873;}.cls-343{fill:#025256;}.cls-344{fill:#0e6776;}.cls-345{fill:#156c79;}.cls-346{fill:#11646e;}.cls-347{fill:#1d859b;}.cls-348{fill:#0b6d7d;}.cls-349{fill:#13727e;}.cls-350{fill:#1881c2;}.cls-351{fill:#166c78;}.cls-352{fill:#149dca;}.cls-353{fill:#1797c8;}.cls-354{fill:#20a3dc;}.cls-355{fill:#2ea6de;}.cls-356{fill:#209abc;}.cls-357{fill:#0f8db0;}.cls-358{fill:#21a7d2;}.cls-359{fill:#1086a4;}.cls-360{fill:#1da2dc;}.cls-361{fill:#1780be;}.cls-362{fill:#127cbc;}.cls-363{fill:#127bb7;}.cls-364{fill:#147ebc;}.cls-365{fill:#249ed9;}.cls-366{fill:#1798d5;}.cls-367{fill:#1d99d5;}.cls-368{fill:#107bb9;}.cls-369{fill:#1384c3;}.cls-370{fill:#15859d;}.cls-371{fill:#168da7;}.cls-372{fill:#147d91;}.cls-373{fill:#0e6979;}.cls-374{fill:#0f6e7f;}.cls-375{fill:#176a79;}.cls-376{fill:#1995d3;}.cls-377{fill:#0f91cc;}.cls-378{fill:#37abe1;}.cls-379{fill:#1498cb;}.cls-380{fill:#109ad1;}.cls-381{fill:#0c78b6;}.cls-382{fill:#197384;}.cls-383{fill:#156e7d;}.cls-384{fill:#03606e;}.cls-385{fill:#137bba;}.cls-386{fill:#00619c;}.cls-387{fill:#0e809c;}.cls-388{fill:#0c8cac;}.cls-389{fill:#1192cd;}.cls-390{fill:#0a97cf;}.cls-391{fill:#1396d3;}.cls-392{fill:#0070aa;}.cls-393{fill:#067ab5;}.cls-394{fill:#147b94;}.cls-395{fill:#006e87;}.cls-396{fill:#238fce;}.cls-397{fill:#0679b3;}.cls-398{fill:#0477b2;}.cls-399{fill:#1299c2;}.cls-400{fill:#1fa1d6;}.cls-401{fill:#2e96ab;}.cls-402{fill:#097d9b;}.cls-403{fill:#0f87ad;}.cls-404{fill:#188dcd;}.cls-405{fill:#25a1db;}.cls-406{fill:#0f79b7;}.cls-407{fill:#1887c9;}.cls-408{fill:#0c86c0;}.cls-409{fill:#44b1e5;}.cls-410{fill:#1599c9;}.cls-411{fill:#2c94d1;}.cls-412{fill:#107cba;}.cls-413{fill:#1c9ad6;}.cls-414{fill:#0b8cc5;}.cls-415{fill:#0e89c4;}.cls-416{fill:#0f73b3;}.cls-417{fill:#2184a0;}.cls-418{fill:#106c7e;}.cls-419{fill:#1680c0;}.cls-420{fill:#1b85c7;}.cls-421{fill:#258ecd;}.cls-422{fill:#30a5dd;}.cls-423{fill:#219ad6;}.cls-424{fill:#179bcc;}.cls-425{fill:#0589bd;}.cls-426{fill:#23a3dd;}.cls-427{fill:#53c9f4;}.cls-428{fill:#33b0e5;}.cls-429{fill:#158dc8;}.cls-430{fill:#2295d3;}.cls-431{fill:#0c6676;}.cls-432{fill:#1084c2;}.cls-433{fill:#117dbb;}.cls-434{fill:#1e8bcb;}.cls-435{fill:#127c99;}.cls-436{fill:#2289a6;}.cls-437{fill:#0e6c7c;}.cls-438{fill:#126777;}.cls-439{fill:#229dd8;}.cls-440{fill:#22a2dc;}.cls-441{fill:#39a1da;}.cls-442{fill:#2f96d3;}.cls-443{fill:#0880a9;}.cls-444{fill:#2aa2db;}.cls-445{fill:#1581c5;}.cls-446{fill:#199ccc;}.cls-447{fill:#27a4d0;}.cls-448{fill:#1a90b2;}.cls-449{fill:#118baf;}.cls-450{fill:#0d83a5;}.cls-451{fill:#138ac4;}.cls-452{fill:#0f87c1;}.cls-453{fill:#1f99d6;}.cls-454{fill:#058bba;}.cls-455{fill:#1796c8;}.cls-456{fill:#0f80bb;}.cls-457{fill:#1884c7;}.cls-458{fill:#0074b0;}.cls-459{fill:#1996cf;}.cls-460{fill:#0b6675;}.cls-461{fill:#188ac8;}.cls-462{fill:#1280bc;}.cls-463{fill:#0871af;}.cls-464{fill:#0b75b5;}.cls-465{fill:#0571b1;}.cls-466{fill:#179bd7;}.cls-467{fill:#1581a1;}.cls-468{fill:#1783c2;}.cls-469{fill:#1f8ccc;}.cls-470{fill:#137ebd;}.cls-471{fill:#1685ac;}.cls-472{fill:#1b94c1;}.cls-473{fill:#178eb7;}.cls-474{fill:#1795d2;}.cls-475{fill:#1788c4;}.cls-476{fill:#106279;}.cls-477{fill:#036d84;}.cls-478{fill:#1a7a94;}.cls-479{fill:#0f6c82;}.cls-480{fill:#0f8cc6;}.cls-481{fill:#0065a5;}.cls-482{fill:#2aa0da;}.cls-483{fill:#1997d1;}.cls-484{fill:#147cbb;}.cls-485{fill:#35b3e5;}.cls-486{fill:#0e88b7;}.cls-487{fill:#0e86b1;}.cls-488{fill:#0c8cc8;}.cls-489{fill:#0a83bc;}.cls-490{fill:#00619f;}.cls-491{fill:#0c71b0;}.cls-492{fill:#0274af;}.cls-493{fill:#1883c6;}.cls-494{fill:#3298d4;}.cls-495{fill:#248dcd;}.cls-496{fill:#0e86bc;}.cls-497{fill:#0b82ba;}.cls-498{fill:#168cc5;}.cls-499{fill:#1987b1;}.cls-500{fill:#08779e;}.cls-501{fill:#04617b;}.cls-502{fill:#0067a6;}.cls-503{fill:#00629e;}.cls-504{fill:#217690;}.cls-505{fill:#196b82;}.cls-506{fill:#085a6b;}.cls-507{fill:#0a79b4;}.cls-508{fill:#0978b1;}.cls-509{fill:#168cc2;}.cls-510{fill:#0166a4;}.cls-511{fill:#1b7fa7;}.cls-512{fill:#107699;}.cls-513{fill:#177392;}.cls-514{fill:#0d7fb6;}.cls-515{fill:#0d637e;}.cls-516{fill:#0a5b72;}.cls-517{fill:#10637b;}.cls-518{fill:#1286bc;}.cls-519{fill:#1686bd;}.cls-520{fill:#056cab;}.cls-521{fill:#0f74b5;}.cls-522{fill:#1381ba;}.cls-523{fill:#1282bd;}.cls-524{fill:#0c7cb4;}.cls-525{fill:#1a80a8;}.cls-526{fill:#107ca8;}.cls-527{fill:#1f8bbb;}.cls-528{fill:#066fac;}.cls-529{fill:#127ab6;}.cls-530{fill:#187eb7;}.cls-531{fill:#1480b7;}.cls-532{fill:#137eb4;}.cls-533{fill:#188ac3;}.cls-534{fill:#096cae;}.cls-535{fill:#0168a7;}.cls-536{fill:#1475b7;}.cls-537{fill:#1884c1;}.cls-538{fill:#1583bd;}.cls-539{fill:#167cb9;}.cls-540{fill:#147bb9;}.cls-541{fill:#08576e;}.cls-542{fill:#1178ab;}.cls-543{fill:#1983b6;}.cls-544{fill:#197eaf;}.cls-545{fill:#0c6aae;}.cls-546{fill:#15769c;}.cls-547{fill:#096991;}.cls-548{fill:#0872a5;}.cls-549{fill:#0a72af;}.cls-550{fill:#0668a8;}.cls-551{fill:#0571ac;}.cls-552{fill:#06536a;}.cls-553{fill:#01619e;}.cls-554{fill:#005c99;}.cls-555{fill:#0763a6;}.cls-556{fill:#126581;}.cls-557{fill:#06556d;}.cls-558{fill:#107aac;}.cls-559{fill:#126688;}.cls-560{fill:#035674;}.cls-561{fill:#096e9b;}.cls-562{fill:#04659a;}.cls-563{fill:#0972aa;}.cls-564{fill:#1073b0;}.cls-565{fill:#1678a9;}.cls-566{fill:#096f9f;}.cls-567{fill:#036696;}.cls-568{fill:#08536d;}.cls-569{fill:#0c5870;}.cls-570{fill:#0c61a7;}.cls-571{fill:#005371;}.cls-572{fill:#015475;}.cls-573{fill:#035f85;}.cls-574{fill:#016189;}.cls-575{fill:#127bb2;}.cls-576{fill:#005e96;}.cls-577{fill:#08679c;}.cls-578{fill:#016796;}.cls-579{fill:#005f99;}.cls-580{fill:#00619d;}.cls-581{fill:#0c5b7c;}.cls-582{fill:#004b6b;}.cls-583{fill:#045397;}.cls-584{fill:#00579b;}.cls-585{fill:#1270b2;}.cls-586{fill:#0766a4;}.cls-587{fill:#3194c5;}.cls-588{fill:#1c80b6;}.cls-589{fill:#155e77;}.cls-590{fill:#267bbf;}.cls-591{fill:#005392;}.cls-592{fill:#005896;}.cls-593{fill:#054963;}.cls-594{fill:#04465d;}.cls-595{fill:#0d6aa6;}.cls-596{fill:#005d96;}.cls-597{fill:#005a83;}.cls-598{fill:#0f6895;}.cls-599{fill:#07638f;}.cls-600{fill:#0a4b65;}.cls-601{fill:#0c5069;}.cls-602{fill:#0e5878;}.cls-603{fill:#216f92;}.cls-604{fill:#15607f;}.cls-605{fill:#0959a2;}.cls-606{fill:#1969b2;}.cls-607{fill:#045c82;}.cls-608{fill:#04569f;}.cls-609{fill:#0b66a5;}.cls-610{fill:#005188;}.cls-611{fill:#0c6ba4;}.cls-612{fill:#1e7ab5;}.cls-613{fill:#076694;}.cls-614{fill:#025d8b;}.cls-615{fill:#1e407a;}.cls-616{fill:#307fc1;}.cls-617{fill:#055c83;}.cls-618{fill:#005279;}.cls-619{fill:#145e7e;}.cls-620{fill:#136288;}.cls-621{fill:#0a5575;}.cls-622{fill:#1d6383;}.cls-623{fill:#085e9f;}.cls-624{fill:#0e63a5;}.cls-625{fill:#094863;}.cls-626{fill:#003c56;}.cls-627{fill:#144a87;}.cls-628{fill:#045898;}.cls-629{fill:#1870a8;}.cls-630{fill:#1b71a6;}.cls-631{fill:#0f4d95;}.cls-632{fill:#10638f;}.cls-633{fill:#0a5c86;}.cls-634{fill:#005b8f;}.cls-635{fill:#0c68a3;}.cls-636{fill:#015593;}.cls-637{fill:#085178;}.cls-638{fill:#0d5ba5;}.cls-639{fill:#065399;}.cls-640{fill:#094f6f;}.cls-641{fill:#105171;}.cls-642{fill:#05425f;}.cls-643{fill:#003a52;}.cls-644{fill:#003851;}.cls-645{fill:#095d95;}.cls-646{fill:#00558c;}.cls-647{fill:#144a93;}.cls-648{fill:#05549e;}.cls-649{fill:#07509b;}.cls-650{fill:#024a6e;}.cls-651{fill:#003954;}.cls-652{fill:#05435c;}.cls-653{fill:#0f5b86;}.cls-654{fill:#024c73;}.cls-655{fill:#09557d;}.cls-656{fill:#0f4c86;}.cls-657{fill:#03508e;}.cls-658{fill:#055a99;}.cls-659{fill:#0e5b9e;}.cls-660{fill:#01425d;}.cls-661{fill:#084d6e;}.cls-662{fill:#1c4589;}.cls-663{fill:#1e4488;}.cls-664{fill:#074871;}.cls-665{fill:#004f7f;}.cls-666{fill:#034d7d;}.cls-667{fill:#04538b;}.cls-668{fill:#194379;}.cls-669{fill:#0f4865;}.cls-670{fill:#0a58a0;}.cls-671{fill:#134b8b;}.cls-672{fill:#014566;}.cls-673{fill:#065079;}.cls-674{fill:#0d578a;}.cls-675{fill:#094b7c;}.cls-676{fill:#054f81;}.cls-677{fill:#184171;}.cls-678{fill:#233c7a;}.cls-679{fill:#204281;}.cls-680{fill:#0f4c97;}.cls-681{fill:#193f6f;}.cls-682{fill:#12547c;}.cls-683{fill:#0e4e72;}.cls-684{fill:#144f6f;}.cls-685{fill:#0a4965;}.cls-686{fill:#09518b;}.cls-687{fill:#0d4b80;}.cls-688{fill:#0a4f95;}.cls-689{fill:#165ea8;}.cls-690{fill:#104864;}.cls-691{fill:#124b6a;}.cls-692{fill:#00374e;}.cls-693{fill:#04517e;}.cls-694{fill:#0f3e64;}.cls-695{fill:#1a478a;}.cls-696{fill:#023b58;}.cls-697{fill:#042f4b;}.cls-698{fill:#003752;}.cls-699{fill:#084e90;}.cls-700{fill:#184780;}.cls-701{fill:#08508e;}.cls-702{fill:#243c7c;}.cls-703{fill:#214080;}.cls-704{fill:#074367;}.cls-705{fill:#064464;}.cls-706{fill:#10497c;}.cls-707{fill:#065083;}.cls-708{fill:#065183;}.cls-709{fill:#184173;}.cls-710{fill:#184274;}.cls-711{fill:#1b468b;}.cls-712{fill:#1f4385;}.cls-713{fill:#213f7f;}.cls-714{fill:#19447a;}.cls-715{fill:#043956;}.cls-716{fill:#0e3f65;}.cls-717{fill:#09466e;}.cls-718{fill:#023854;}.cls-719{fill:#0a4d99;}.cls-720{fill:#0b5293;}.cls-721{fill:#0c4d89;}.cls-722{fill:#11548f;}.cls-723{fill:#033551;}.cls-724{fill:#0a425f;}.cls-725{fill:#00354f;}.cls-726{fill:#02334e;}.cls-727{fill:#114471;}.cls-728{fill:#0c4977;}.cls-729{fill:#1f4282;}.cls-730{fill:#184890;}.cls-731{fill:#1f4386;}.cls-732{fill:#064568;}.cls-733{fill:#084162;}.cls-734{fill:#144371;}.cls-735{fill:#1b3d6e;}.cls-736{fill:#183f6e;}.cls-737{fill:#164475;}.cls-738{fill:#124a86;}.cls-739{fill:#0f508e;}.cls-740{fill:#174887;}.cls-741{fill:#1a5a9c;}.cls-742{fill:#0e4d94;}.cls-743{fill:#1a478f;}.cls-744{fill:#1a447c;}.cls-745{fill:#1c3c6e;}.cls-746{fill:#194173;}.cls-747{fill:#0e4c84;}.cls-748{fill:#164578;}.cls-749{fill:#023a54;}.cls-750{fill:#033b57;}.cls-751{fill:#03324d;}.cls-752{fill:#063350;}.cls-753{fill:#083e5d;}.cls-754{fill:#19467e;}.cls-755{fill:#134a8a;}.cls-756{fill:#20407d;}.cls-757{fill:#223d7c;}.cls-758{fill:#0c4269;}.cls-759{fill:#0a4167;}.cls-760{fill:#194378;}.cls-761{fill:#123e66;}.cls-762{fill:#153c66;}.cls-763{fill:#214186;}.cls-764{fill:#223e80;}.cls-765{fill:#20438a;}.cls-766{fill:#243c7d;}.cls-767{fill:#1c3c6d;}.cls-768{fill:#1d3666;}.cls-769{fill:#1b3866;}.cls-770{fill:#0a4b7d;}.cls-771{fill:#042945;}.cls-772{fill:#1553a0;}.cls-773{fill:#194790;}.cls-774{fill:#203467;}.cls-775{fill:#1f3f79;}.cls-776{fill:#243875;}.cls-777{fill:#223f82;}.cls-778{fill:#0c3453;}.cls-779{fill:#084163;}.cls-780{fill:#0f4868;}.cls-781{fill:#002a42;}.cls-782{fill:#1a5c99;}.cls-783{fill:#194680;}.cls-784{fill:#213c74;}.cls-785{fill:#0f5193;}.cls-786{fill:#223a74;}.cls-787{fill:#23356e;}.cls-788{fill:#1d4588;}.cls-789{fill:#134b94;}.cls-790{fill:#1e458b;}.cls-791{fill:#1d3767;}.cls-792{fill:#114779;}.cls-793{fill:#183964;}.cls-794{fill:#134472;}.cls-795{fill:#102548;}.cls-796{fill:#0c2848;}.cls-797{fill:#12365b;}.cls-798{fill:#173159;}.cls-799{fill:#083e5b;}.cls-800{fill:#023550;}.cls-801{fill:#003953;}.cls-802{fill:#1650a1;}.cls-803{fill:#224085;}.cls-804{fill:#25397b;}.cls-805{fill:#1a4792;}</style><clipPath id="clip-path" transform="translate(360.34 -453.51)"><rect class="cls-1" x="-160" y="740" width="1920" height="1080" transform="translate(1600 2560) rotate(180)"/></clipPath></defs><title>background</title><rect class="cls-2" x="200.33" y="286.49" width="1920" height="1080"/><g class="cls-3"><g class="cls-4"><polygon class="cls-5" points="2299.9 476.27 2299.9 225.06 2297.6 374.22 2299.9 476.27"/><polygon class="cls-6" points="2297.6 952.55 2297.6 688.25 2293 832.18 2297.6 952.55"/><polygon class="cls-7" points="2299.9 1635.57 2290.7 1439.3 2286.1 1546.59 2299.9 1635.57"/><polygon class="cls-8" points="2295.3 1172.37 2297.6 952.55 2286.1 1088.63 2295.3 1172.37"/><polygon class="cls-9" points="2299.9 225.06 2299.9 0 2286.1 109.91 2299.9 225.06"/><polygon class="cls-10" points="2297.6 952.55 2293 832.18 2283.8 905.45 2297.6 952.55"/><polygon class="cls-11" points="2286.1 1088.63 2297.6 952.55 2279.2 978.72 2286.1 1088.63"/><polygon class="cls-12" points="2297.6 952.55 2283.8 905.45 2279.2 978.72 2297.6 952.55"/><polygon class="cls-13" points="2297.6 575.72 2299.9 476.27 2276.9 486.75 2297.6 575.72"/><polygon class="cls-14" points="2299.9 225.06 2286.1 109.91 2274.6 149.17 2299.9 225.06"/><polygon class="cls-15" points="2299.9 1635.57 2286.1 1546.59 2272.3 1609.4 2299.9 1635.57"/><polygon class="cls-16" points="2290.7 1313.68 2295.3 1172.37 2270 1258.73 2290.7 1313.68"/><polygon class="cls-17" points="2297.6 374.22 2299.9 225.06 2267.7 358.52 2297.6 374.22"/><polygon class="cls-18" points="2299.9 225.06 2274.6 149.17 2265.41 227.67 2299.9 225.06"/><polygon class="cls-19" points="2293 832.18 2297.6 688.25 2263.11 787.69 2293 832.18"/><polygon class="cls-20" points="2297.6 374.22 2267.7 358.52 2251.61 426.56 2297.6 374.22"/><polygon class="cls-21" points="2299.9 476.27 2297.6 374.22 2251.61 426.56 2299.9 476.27"/><polygon class="cls-13" points="2276.9 486.75 2299.9 476.27 2251.61 426.56 2276.9 486.75"/><polygon class="cls-22" points="2283.8 905.45 2293 832.18 2244.7 840.03 2283.8 905.45"/><polygon class="cls-23" points="2293 832.18 2263.11 787.69 2244.7 840.03 2293 832.18"/><polygon class="cls-24" points="2267.7 358.52 2299.9 225.06 2242.41 293.1 2267.7 358.52"/><polygon class="cls-25" points="2299.9 225.06 2265.41 227.67 2242.41 293.1 2299.9 225.06"/><polygon class="cls-9" points="2274.6 149.17 2286.1 109.91 2240.11 115.15 2274.6 149.17"/><polygon class="cls-26" points="2290.7 1439.3 2290.7 1313.68 2237.81 1379.11 2290.7 1439.3"/><polygon class="cls-27" points="2297.6 688.25 2297.6 575.72 2237.81 677.78 2297.6 688.25"/><polygon class="cls-28" points="2263.11 787.69 2297.6 688.25 2237.81 677.78 2263.11 787.69"/><polygon class="cls-29" points="2290.7 1439.3 2237.81 1379.11 2228.61 1468.08 2290.7 1439.3"/><polygon class="cls-30" points="2286.1 1546.59 2290.7 1439.3 2228.61 1468.08 2286.1 1546.59"/><polygon class="cls-30" points="2235.51 1536.12 2286.1 1546.59 2228.61 1468.08 2235.51 1536.12"/><polygon class="cls-31" points="2286.1 109.91 2299.9 0 2226.3 34.02 2286.1 109.91"/><polygon class="cls-32" points="2240.11 115.15 2286.1 109.91 2226.3 34.02 2240.11 115.15"/><polygon class="cls-33" points="2272.3 1609.4 2286.1 1546.59 2221.71 1585.84 2272.3 1609.4"/><polygon class="cls-34" points="2286.1 1546.59 2235.51 1536.12 2221.71 1585.84 2286.1 1546.59"/><polygon class="cls-35" points="2290.7 1313.68 2270 1258.73 2219.41 1300.6 2290.7 1313.68"/><polygon class="cls-36" points="2237.81 1379.11 2290.7 1313.68 2219.41 1300.6 2237.81 1379.11"/><polygon class="cls-37" points="2270 1258.73 2295.3 1172.37 2219.41 1148.82 2270 1258.73"/><polygon class="cls-29" points="2219.41 1300.6 2270 1258.73 2219.41 1148.82 2219.41 1300.6"/><polygon class="cls-38" points="2295.3 1172.37 2286.1 1088.63 2219.41 1148.82 2295.3 1172.37"/><polygon class="cls-39" points="2242.41 293.1 2265.41 227.67 2219.41 230.29 2242.41 293.1"/><polygon class="cls-40" points="2274.6 149.17 2240.11 115.15 2210.21 191.03 2274.6 149.17"/><polygon class="cls-18" points="2265.41 227.67 2274.6 149.17 2210.21 191.03 2265.41 227.67"/><polygon class="cls-41" points="2219.41 230.29 2265.41 227.67 2210.21 191.03 2219.41 230.29"/><polygon class="cls-42" points="2279.2 978.72 2283.8 905.45 2196.41 889.75 2279.2 978.72"/><polygon class="cls-43" points="2283.8 905.45 2244.7 840.03 2196.41 889.75 2283.8 905.45"/><polygon class="cls-44" points="2297.6 575.72 2276.9 486.75 2196.41 486.75 2297.6 575.72"/><polygon class="cls-45" points="2276.9 486.75 2251.61 426.56 2196.41 486.75 2276.9 486.75"/><polygon class="cls-46" points="2279.2 978.72 2196.41 889.75 2189.51 1025.83 2279.2 978.72"/><polygon class="cls-47" points="2286.1 1088.63 2279.2 978.72 2189.51 1025.83 2286.1 1088.63"/><polygon class="cls-48" points="2219.41 1148.82 2286.1 1088.63 2189.51 1025.83 2219.41 1148.82"/><polygon class="cls-49" points="2196.41 486.75 2251.61 426.56 2184.91 379.45 2196.41 486.75"/><polygon class="cls-50" points="2251.61 426.56 2267.7 358.52 2184.91 379.45 2251.61 426.56"/><polygon class="cls-51" points="2267.7 358.52 2242.41 293.1 2184.91 379.45 2267.7 358.52"/><polygon class="cls-52" points="2237.81 677.78 2297.6 575.72 2171.11 620.21 2237.81 677.78"/><polygon class="cls-53" points="2297.6 575.72 2196.41 486.75 2171.11 620.21 2297.6 575.72"/><polygon class="cls-54" points="2235.51 1536.12 2228.61 1468.08 2157.31 1528.27 2235.51 1536.12"/><polygon class="cls-55" points="2221.71 1585.84 2235.51 1536.12 2157.31 1528.27 2221.71 1585.84"/><polygon class="cls-56" points="2219.41 1300.6 2219.41 1148.82 2143.51 1209.01 2219.41 1300.6"/><polygon class="cls-57" points="2143.51 1209.01 2219.41 1148.82 2138.91 1201.16 2143.51 1209.01"/><polygon class="cls-58" points="2237.81 1379.11 2219.41 1300.6 2136.61 1439.3 2237.81 1379.11"/><polygon class="cls-59" points="2228.61 1468.08 2237.81 1379.11 2136.61 1439.3 2228.61 1468.08"/><polygon class="cls-60" points="2157.31 1528.27 2228.61 1468.08 2136.61 1439.3 2157.31 1528.27"/><polygon class="cls-61" points="2240.11 115.15 2226.3 34.02 2132.01 73.28 2240.11 115.15"/><polygon class="cls-62" points="2210.21 191.03 2240.11 115.15 2132.01 73.28 2210.21 191.03"/><polygon class="cls-18" points="2219.41 230.29 2210.21 191.03 2122.81 266.92 2219.41 230.29"/><polygon class="cls-63" points="2242.41 293.1 2219.41 230.29 2122.81 266.92 2242.41 293.1"/><polygon class="cls-64" points="2184.91 379.45 2242.41 293.1 2122.81 266.92 2184.91 379.45"/><polygon class="cls-65" points="2189.51 1025.83 2196.41 889.75 2122.81 881.9 2189.51 1025.83"/><polygon class="cls-66" points="2171.11 620.21 2196.41 486.75 2120.51 549.55 2171.11 620.21"/><polygon class="cls-67" points="2263.11 787.69 2237.81 677.78 2118.21 782.46 2263.11 787.69"/><polygon class="cls-68" points="2244.7 840.03 2263.11 787.69 2118.21 782.46 2244.7 840.03"/><polygon class="cls-69" points="2196.41 889.75 2244.7 840.03 2118.21 782.46 2196.41 889.75"/><polygon class="cls-70" points="2122.81 881.9 2196.41 889.75 2118.21 782.46 2122.81 881.9"/><polygon class="cls-71" points="2237.81 677.78 2171.11 620.21 2118.21 782.46 2237.81 677.78"/><polygon class="cls-72" points="2184.91 379.45 2122.81 266.92 2111.31 324.5 2184.91 379.45"/><polygon class="cls-73" points="2210.21 191.03 2132.01 73.28 2111.31 151.78 2210.21 191.03"/><polygon class="cls-74" points="2122.81 266.92 2210.21 191.03 2111.31 151.78 2122.81 266.92"/><polygon class="cls-75" points="2132.01 73.28 2226.3 34.02 2109.01 31.4 2132.01 73.28"/><polygon class="cls-76" points="2226.3 34.02 2299.9 0 2109.01 31.4 2226.3 34.02"/><polygon class="cls-77" points="2221.71 1585.84 2157.31 1528.27 2106.71 1622.48 2221.71 1585.84"/><polygon class="cls-78" points="2299.9 1635.57 2272.3 1609.4 2106.71 1622.48 2299.9 1635.57"/><polygon class="cls-55" points="2272.3 1609.4 2221.71 1585.84 2106.71 1622.48 2272.3 1609.4"/><polygon class="cls-79" points="2189.51 1025.83 2122.81 881.9 2099.81 1046.76 2189.51 1025.83"/><polygon class="cls-80" points="2219.41 1148.82 2189.51 1025.83 2099.81 1046.76 2219.41 1148.82"/><polygon class="cls-81" points="2157.31 1528.27 2136.61 1439.3 2092.91 1575.38 2157.31 1528.27"/><polygon class="cls-82" points="2106.71 1622.48 2157.31 1528.27 2092.91 1575.38 2106.71 1622.48"/><polygon class="cls-83" points="2219.41 1300.6 2143.51 1209.01 2090.61 1400.05 2219.41 1300.6"/><polygon class="cls-84" points="2136.61 1439.3 2219.41 1300.6 2090.61 1400.05 2136.61 1439.3"/><polygon class="cls-85" points="2184.91 379.45 2111.31 324.5 2074.51 481.51 2184.91 379.45"/><polygon class="cls-86" points="2196.41 486.75 2184.91 379.45 2074.51 481.51 2196.41 486.75"/><polygon class="cls-87" points="2120.51 549.55 2196.41 486.75 2074.51 481.51 2120.51 549.55"/><polygon class="cls-88" points="2138.91 1201.16 2219.41 1148.82 2072.21 1112.19 2138.91 1201.16"/><polygon class="cls-89" points="2219.41 1148.82 2099.81 1046.76 2072.21 1112.19 2219.41 1148.82"/><polygon class="cls-90" points="2122.81 881.9 2118.21 782.46 2060.71 803.39 2122.81 881.9"/><polygon class="cls-91" points="2060.71 803.39 2118.21 782.46 2060.71 730.12 2060.71 803.39"/><polygon class="cls-92" points="2118.21 782.46 2171.11 620.21 2060.71 730.12 2118.21 782.46"/><polygon class="cls-93" points="2111.31 151.78 2132.01 73.28 2049.21 125.61 2111.31 151.78"/><polygon class="cls-94" points="2132.01 73.28 2109.01 31.4 2049.21 125.61 2132.01 73.28"/><polygon class="cls-95" points="2122.81 266.92 2111.31 151.78 2042.31 227.67 2122.81 266.92"/><polygon class="cls-96" points="2111.31 151.78 2049.21 125.61 2042.31 227.67 2111.31 151.78"/><polygon class="cls-97" points="2143.51 1209.01 2138.91 1201.16 2037.71 1321.54 2143.51 1209.01"/><polygon class="cls-98" points="2090.61 1400.05 2143.51 1209.01 2037.71 1321.54 2090.61 1400.05"/><polygon class="cls-99" points="2092.91 1575.38 2136.61 1439.3 2033.11 1536.12 2092.91 1575.38"/><polygon class="cls-100" points="2136.61 1439.3 2090.61 1400.05 2033.11 1536.12 2136.61 1439.3"/><polygon class="cls-101" points="2072.21 1112.19 2099.81 1046.76 2033.11 1017.98 2072.21 1112.19"/><polygon class="cls-102" points="2099.81 1046.76 2122.81 881.9 2033.11 1017.98 2099.81 1046.76"/><polygon class="cls-103" points="2122.81 881.9 2060.71 803.39 2033.11 1017.98 2122.81 881.9"/><polygon class="cls-104" points="2074.51 481.51 2111.31 324.5 2030.81 387.3 2074.51 481.51"/><polygon class="cls-105" points="2049.21 125.61 2109.01 31.4 2019.32 34.02 2049.21 125.61"/><polygon class="cls-106" points="2109.01 31.4 2299.9 0 2019.32 34.02 2109.01 31.4"/><polygon class="cls-107" points="2030.81 387.3 2111.31 324.5 2014.71 295.71 2030.81 387.3"/><polygon class="cls-108" points="2111.31 324.5 2122.81 266.92 2014.71 295.71 2111.31 324.5"/><polygon class="cls-18" points="2122.81 266.92 2042.31 227.67 2014.71 295.71 2122.81 266.92"/><polygon class="cls-109" points="2171.11 620.21 2120.51 549.55 2012.41 622.82 2171.11 620.21"/><polygon class="cls-110" points="2060.71 730.12 2171.11 620.21 2012.41 622.82 2060.71 730.12"/><polygon class="cls-111" points="2120.51 549.55 2074.51 481.51 2012.41 622.82 2120.51 549.55"/><polygon class="cls-112" points="2090.61 1400.05 2037.71 1321.54 2005.52 1455 2090.61 1400.05"/><polygon class="cls-113" points="2033.11 1536.12 2090.61 1400.05 2005.52 1455 2033.11 1536.12"/><polygon class="cls-42" points="2033.11 1017.98 2060.71 803.39 1998.62 782.46 2033.11 1017.98"/><polygon class="cls-114" points="2060.71 803.39 2060.71 730.12 1998.62 782.46 2060.71 803.39"/><polygon class="cls-115" points="2060.71 730.12 2012.41 622.82 1998.62 782.46 2060.71 730.12"/><polygon class="cls-116" points="2106.71 1622.48 2092.91 1575.38 1996.32 1622.48 2106.71 1622.48"/><polygon class="cls-36" points="2092.91 1575.38 2033.11 1536.12 1996.32 1622.48 2092.91 1575.38"/><polygon class="cls-117" points="2299.9 1635.57 2106.71 1622.48 1996.32 1622.48 2299.9 1635.57"/><polygon class="cls-118" points="2037.71 1321.54 2138.91 1201.16 1959.52 1198.54 2037.71 1321.54"/><polygon class="cls-119" points="1989.41 1300.6 2037.71 1321.54 1959.52 1198.54 1989.41 1300.6"/><polygon class="cls-120" points="2138.91 1201.16 2072.21 1112.19 1959.52 1198.54 2138.91 1201.16"/><polygon class="cls-121" points="2072.21 1112.19 2033.11 1017.98 1959.52 1198.54 2072.21 1112.19"/><polygon class="cls-122" points="2033.11 1536.12 2005.52 1455 1959.52 1541.36 2033.11 1536.12"/><polygon class="cls-81" points="1996.32 1622.48 2033.11 1536.12 1959.52 1541.36 1996.32 1622.48"/><polygon class="cls-123" points="2012.41 622.82 2074.51 481.51 1957.22 565.25 2012.41 622.82"/><polygon class="cls-124" points="2005.52 1455 2037.71 1321.54 1954.92 1394.81 2005.52 1455"/><polygon class="cls-125" points="2037.71 1321.54 1989.41 1300.6 1954.92 1394.81 2037.71 1321.54"/><polygon class="cls-126" points="2049.21 125.61 2019.32 34.02 1952.62 70.66 2049.21 125.61"/><polygon class="cls-127" points="2042.31 227.67 2049.21 125.61 1948.02 170.1 2042.31 227.67"/><polygon class="cls-128" points="2049.21 125.61 1952.62 70.66 1948.02 170.1 2049.21 125.61"/><polygon class="cls-129" points="2014.71 295.71 2042.31 227.67 1948.02 170.1 2014.71 295.71"/><polygon class="cls-130" points="2030.81 387.3 2014.71 295.71 1945.72 447.49 2030.81 387.3"/><polygon class="cls-131" points="2074.51 481.51 2030.81 387.3 1945.72 447.49 2074.51 481.51"/><polygon class="cls-132" points="1957.22 565.25 2074.51 481.51 1945.72 447.49 1957.22 565.25"/><polygon class="cls-133" points="1948.02 170.1 1952.62 70.66 1931.92 141.31 1948.02 170.1"/><polygon class="cls-134" points="1998.62 782.46 2012.41 622.82 1906.62 690.86 1998.62 782.46"/><polygon class="cls-135" points="2012.41 622.82 1957.22 565.25 1906.62 690.86 2012.41 622.82"/><polygon class="cls-136" points="1989.41 1300.6 1959.52 1198.54 1895.12 1253.5 1989.41 1300.6"/><polygon class="cls-137" points="1954.92 1394.81 1989.41 1300.6 1895.12 1253.5 1954.92 1394.81"/><polygon class="cls-138" points="2014.71 295.71 1948.02 170.1 1895.12 285.24 2014.71 295.71"/><polygon class="cls-139" points="1959.52 1541.36 2005.52 1455 1892.82 1483.78 1959.52 1541.36"/><polygon class="cls-140" points="2005.52 1455 1954.92 1394.81 1892.82 1483.78 2005.52 1455"/><polygon class="cls-141" points="2033.11 1017.98 1998.62 782.46 1890.52 957.79 2033.11 1017.98"/><polygon class="cls-142" points="1945.72 447.49 2014.71 295.71 1881.32 395.15 1945.72 447.49"/><polygon class="cls-143" points="2014.71 295.71 1895.12 285.24 1881.32 395.15 2014.71 295.71"/><polygon class="cls-144" points="1998.62 782.46 1906.62 690.86 1876.72 855.73 1998.62 782.46"/><polygon class="cls-145" points="1890.52 957.79 1998.62 782.46 1876.72 855.73 1890.52 957.79"/><polygon class="cls-146" points="1996.32 1622.48 1959.52 1541.36 1851.42 1551.82 1996.32 1622.48"/><polygon class="cls-147" points="1959.52 1541.36 1892.82 1483.78 1851.42 1551.82 1959.52 1541.36"/><polygon class="cls-148" points="1876.72 855.73 1906.62 690.86 1842.22 737.97 1876.72 855.73"/><polygon class="cls-149" points="1895.12 1253.5 1959.52 1198.54 1837.62 1138.35 1895.12 1253.5"/><polygon class="cls-150" points="1959.52 1198.54 2033.11 1017.98 1837.62 1138.35 1959.52 1198.54"/><polygon class="cls-151" points="2033.11 1017.98 1890.52 957.79 1837.62 1138.35 2033.11 1017.98"/><polygon class="cls-152" points="1945.72 447.49 1881.32 395.15 1835.32 416.09 1945.72 447.49"/><polygon class="cls-153" points="1881.32 395.15 1895.12 285.24 1835.32 416.09 1881.32 395.15"/><polygon class="cls-154" points="1931.92 141.31 1952.62 70.66 1835.32 141.31 1931.92 141.31"/><polygon class="cls-155" points="1948.02 170.1 1931.92 141.31 1835.32 141.31 1948.02 170.1"/><polygon class="cls-156" points="1895.12 285.24 1948.02 170.1 1835.32 141.31 1895.12 285.24"/><polygon class="cls-157" points="1954.92 1394.81 1895.12 1253.5 1828.42 1305.84 1954.92 1394.81"/><polygon class="cls-158" points="1892.82 1483.78 1954.92 1394.81 1823.82 1415.74 1892.82 1483.78"/><polygon class="cls-159" points="1954.92 1394.81 1828.42 1305.84 1823.82 1415.74 1954.92 1394.81"/><polygon class="cls-160" points="1851.42 1551.82 1892.82 1483.78 1823.82 1415.74 1851.42 1551.82"/><polygon class="cls-161" points="1835.32 141.31 1952.62 70.66 1810.02 81.13 1835.32 141.31"/><polygon class="cls-162" points="1835.32 416.09 1895.12 285.24 1803.12 230.29 1835.32 416.09"/><polygon class="cls-163" points="1895.12 285.24 1835.32 141.31 1803.12 230.29 1895.12 285.24"/><polygon class="cls-164" points="1895.12 1253.5 1837.62 1138.35 1798.52 1193.31 1895.12 1253.5"/><polygon class="cls-165" points="1828.42 1305.84 1895.12 1253.5 1798.52 1193.31 1828.42 1305.84"/><polygon class="cls-166" points="1906.62 690.86 1957.22 565.25 1793.92 544.32 1906.62 690.86"/><polygon class="cls-167" points="1945.72 447.49 1835.32 416.09 1793.92 544.32 1945.72 447.49"/><polygon class="cls-168" points="1835.32 416.09 1796.22 455.34 1793.92 544.32 1835.32 416.09"/><polygon class="cls-169" points="1957.22 565.25 1945.72 447.49 1793.92 544.32 1957.22 565.25"/><polygon class="cls-170" points="1798.52 1193.31 1837.62 1138.35 1782.42 1044.14 1798.52 1193.31"/><polygon class="cls-171" points="1837.62 1138.35 1890.52 957.79 1782.42 1044.14 1837.62 1138.35"/><polygon class="cls-172" points="1842.22 737.97 1906.62 690.86 1782.42 693.48 1842.22 737.97"/><polygon class="cls-173" points="1906.62 690.86 1793.92 544.32 1782.42 693.48 1906.62 690.86"/><polygon class="cls-174" points="1890.52 957.79 1876.72 855.73 1773.22 939.47 1890.52 957.79"/><polygon class="cls-175" points="1782.42 1044.14 1890.52 957.79 1773.22 939.47 1782.42 1044.14"/><polygon class="cls-176" points="1828.42 1305.84 1798.52 1193.31 1768.63 1284.9 1828.42 1305.84"/><polygon class="cls-177" points="1793.92 544.32 1796.22 455.34 1747.93 481.51 1793.92 544.32"/><polygon class="cls-178" points="1747.93 481.51 1796.22 455.34 1741.03 361.13 1747.93 481.51"/><polygon class="cls-179" points="1835.32 416.09 1803.12 230.29 1741.03 361.13 1835.32 416.09"/><polygon class="cls-180" points="1796.22 455.34 1835.32 416.09 1741.03 361.13 1796.22 455.34"/><polygon class="cls-181" points="1842.22 737.97 1782.42 693.48 1738.73 816.48 1842.22 737.97"/><polygon class="cls-182" points="1876.72 855.73 1842.22 737.97 1738.73 816.48 1876.72 855.73"/><polygon class="cls-183" points="1773.22 939.47 1876.72 855.73 1738.73 816.48 1773.22 939.47"/><polygon class="cls-184" points="1823.82 1415.74 1828.42 1305.84 1736.43 1394.81 1823.82 1415.74"/><polygon class="cls-185" points="1828.42 1305.84 1768.63 1284.9 1736.43 1394.81 1828.42 1305.84"/><polygon class="cls-186" points="1835.32 141.31 1810.02 81.13 1736.43 104.68 1835.32 141.31"/><polygon class="cls-187" points="1803.12 230.29 1835.32 141.31 1736.43 104.68 1803.12 230.29"/><polygon class="cls-188" points="1741.03 361.13 1803.12 230.29 1724.93 243.37 1741.03 361.13"/><polygon class="cls-189" points="1803.12 230.29 1736.43 104.68 1724.93 243.37 1803.12 230.29"/><polygon class="cls-190" points="1793.92 544.32 1747.93 481.51 1722.63 499.83 1793.92 544.32"/><polygon class="cls-191" points="1996.32 1622.48 1851.42 1551.82 1715.73 1617.25 1996.32 1622.48"/><polygon class="cls-192" points="1715.73 1617.25 1851.42 1551.82 1713.43 1499.49 1715.73 1617.25"/><polygon class="cls-193" points="1851.42 1551.82 1823.82 1415.74 1713.43 1499.49 1851.42 1551.82"/><polygon class="cls-194" points="1823.82 1415.74 1736.43 1394.81 1713.43 1499.49 1823.82 1415.74"/><polygon class="cls-195" points="1782.42 693.48 1793.92 544.32 1704.23 646.38 1782.42 693.48"/><polygon class="cls-196" points="1793.92 544.32 1722.63 499.83 1704.23 646.38 1793.92 544.32"/><polygon class="cls-197" points="1747.93 481.51 1741.03 361.13 1697.33 413.47 1747.93 481.51"/><polygon class="cls-198" points="1722.63 499.83 1747.93 481.51 1697.33 413.47 1722.63 499.83"/><polygon class="cls-199" points="1738.73 816.48 1782.42 693.48 1695.03 764.14 1738.73 816.48"/><polygon class="cls-200" points="1782.42 693.48 1704.23 646.38 1695.03 764.14 1782.42 693.48"/><polygon class="cls-201" points="1798.52 1193.31 1782.42 1044.14 1692.73 1109.57 1798.52 1193.31"/><polygon class="cls-202" points="1741.03 361.13 1724.93 243.37 1690.43 272.16 1741.03 361.13"/><polygon class="cls-203" points="1736.43 104.68 1810.02 81.13 1688.13 10.47 1736.43 104.68"/><polygon class="cls-204" points="1952.62 70.66 2019.32 34.02 1688.13 10.47 1952.62 70.66"/><polygon class="cls-205" points="1810.02 81.13 1952.62 70.66 1688.13 10.47 1810.02 81.13"/><polygon class="cls-206" points="2019.32 34.02 2299.9 0 1688.13 10.47 2019.32 34.02"/><polygon class="cls-207" points="1724.93 243.37 1736.43 104.68 1676.63 206.74 1724.93 243.37"/><polygon class="cls-208" points="1690.43 272.16 1724.93 243.37 1676.63 206.74 1690.43 272.16"/><polygon class="cls-209" points="1738.73 816.48 1695.03 764.14 1669.73 876.66 1738.73 816.48"/><polygon class="cls-210" points="1773.22 939.47 1738.73 816.48 1669.73 876.66 1773.22 939.47"/><polygon class="cls-211" points="1697.33 413.47 1741.03 361.13 1662.83 368.98 1697.33 413.47"/><polygon class="cls-212" points="1741.03 361.13 1690.43 272.16 1662.83 368.98 1741.03 361.13"/><polygon class="cls-213" points="1768.63 1284.9 1798.52 1193.31 1660.53 1274.43 1768.63 1284.9"/><polygon class="cls-214" points="1798.52 1193.31 1692.73 1109.57 1660.53 1274.43 1798.52 1193.31"/><polygon class="cls-215" points="1736.43 1394.81 1768.63 1284.9 1660.53 1274.43 1736.43 1394.81"/><polygon class="cls-216" points="1695.03 764.14 1704.23 646.38 1649.03 732.73 1695.03 764.14"/><polygon class="cls-217" points="1669.73 876.66 1695.03 764.14 1649.03 732.73 1669.73 876.66"/><polygon class="cls-218" points="1736.43 104.68 1688.13 10.47 1644.43 83.74 1736.43 104.68"/><polygon class="cls-219" points="1715.73 1617.25 1713.43 1499.49 1639.83 1617.25 1715.73 1617.25"/><polygon class="cls-220" points="1773.22 939.47 1669.73 876.66 1639.83 1057.23 1773.22 939.47"/><polygon class="cls-221" points="1782.42 1044.14 1773.22 939.47 1639.83 1057.23 1782.42 1044.14"/><polygon class="cls-222" points="1692.73 1109.57 1782.42 1044.14 1639.83 1057.23 1692.73 1109.57"/><polygon class="cls-223" points="1676.63 206.74 1736.43 104.68 1635.23 180.57 1676.63 206.74"/><polygon class="cls-224" points="1736.43 104.68 1644.43 83.74 1635.23 180.57 1736.43 104.68"/><polygon class="cls-225" points="1690.43 272.16 1676.63 206.74 1635.23 180.57 1690.43 272.16"/><polygon class="cls-226" points="1722.63 499.83 1697.33 413.47 1632.93 471.04 1722.63 499.83"/><polygon class="cls-227" points="1697.33 413.47 1662.83 368.98 1632.93 471.04 1697.33 413.47"/><polygon class="cls-228" points="1704.23 646.38 1722.63 499.83 1626.03 648.99 1704.23 646.38"/><polygon class="cls-229" points="1649.03 732.73 1704.23 646.38 1626.03 648.99 1649.03 732.73"/><polygon class="cls-230" points="1736.43 1394.81 1660.53 1274.43 1607.63 1366.02 1736.43 1394.81"/><polygon class="cls-231" points="1660.53 1274.43 1692.73 1109.57 1600.73 1188.08 1660.53 1274.43"/><polygon class="cls-232" points="1692.73 1109.57 1639.83 1057.23 1600.73 1188.08 1692.73 1109.57"/><polygon class="cls-233" points="1607.63 1366.02 1660.53 1274.43 1591.53 1313.68 1607.63 1366.02"/><polygon class="cls-234" points="1660.53 1274.43 1600.73 1188.08 1591.53 1313.68 1660.53 1274.43"/><polygon class="cls-235" points="1639.83 1617.25 1713.43 1499.49 1589.23 1507.34 1639.83 1617.25"/><polygon class="cls-236" points="1589.23 1507.34 1713.43 1499.49 1589.23 1418.36 1589.23 1507.34"/><polygon class="cls-237" points="1607.63 1366.02 1591.53 1313.68 1589.23 1418.36 1607.63 1366.02"/><polygon class="cls-238" points="1713.43 1499.49 1736.43 1394.81 1589.23 1418.36 1713.43 1499.49"/><polygon class="cls-239" points="1736.43 1394.81 1607.63 1366.02 1589.23 1418.36 1736.43 1394.81"/><polygon class="cls-240" points="1639.83 1057.23 1669.73 876.66 1575.43 952.55 1639.83 1057.23"/><polygon class="cls-241" points="1722.63 499.83 1632.93 471.04 1575.43 565.25 1722.63 499.83"/><polygon class="cls-242" points="1626.03 648.99 1722.63 499.83 1575.43 565.25 1626.03 648.99"/><polygon class="cls-243" points="1600.73 1188.08 1639.83 1057.23 1573.13 1086.02 1600.73 1188.08"/><polygon class="cls-244" points="1639.83 1057.23 1575.43 952.55 1573.13 1086.02 1639.83 1057.23"/><polygon class="cls-245" points="1635.23 180.57 1644.43 83.74 1568.53 107.29 1635.23 180.57"/><polygon class="cls-246" points="1632.93 471.04 1662.83 368.98 1563.93 340.2 1632.93 471.04"/><polygon class="cls-247" points="1662.83 368.98 1690.43 272.16 1563.93 340.2 1662.83 368.98"/><polygon class="cls-248" points="1644.43 83.74 1688.13 10.47 1557.04 28.79 1644.43 83.74"/><polygon class="cls-249" points="1568.53 107.29 1644.43 83.74 1557.04 28.79 1568.53 107.29"/><polygon class="cls-250" points="1669.73 876.66 1649.03 732.73 1547.84 779.84 1669.73 876.66"/><polygon class="cls-251" points="1649.03 732.73 1626.03 648.99 1547.84 779.84 1649.03 732.73"/><polygon class="cls-252" points="1591.53 1313.68 1600.73 1188.08 1540.93 1193.31 1591.53 1313.68"/><polygon class="cls-253" points="1600.73 1188.08 1573.13 1086.02 1540.93 1193.31 1600.73 1188.08"/><polygon class="cls-254" points="1690.43 272.16 1635.23 180.57 1540.93 266.92 1690.43 272.16"/><polygon class="cls-255" points="1563.93 340.2 1690.43 272.16 1540.93 266.92 1563.93 340.2"/><polygon class="cls-256" points="1635.23 180.57 1568.53 107.29 1540.93 266.92 1635.23 180.57"/><polygon class="cls-257" points="1575.43 952.55 1669.73 876.66 1534.04 855.73 1575.43 952.55"/><polygon class="cls-258" points="1669.73 876.66 1547.84 779.84 1534.04 855.73 1669.73 876.66"/><polygon class="cls-259" points="1575.43 565.25 1632.93 471.04 1511.04 476.27 1575.43 565.25"/><polygon class="cls-260" points="1632.93 471.04 1563.93 340.2 1511.04 476.27 1632.93 471.04"/><polygon class="cls-261" points="1639.83 1617.25 1589.23 1507.34 1492.64 1570.14 1639.83 1617.25"/><polygon class="cls-262" points="1540.93 266.92 1568.53 107.29 1485.74 185.8 1540.93 266.92"/><polygon class="cls-263" points="1540.93 1193.31 1573.13 1086.02 1483.44 1028.44 1540.93 1193.31"/><polygon class="cls-264" points="1573.13 1086.02 1575.43 952.55 1483.44 1028.44 1573.13 1086.02"/><polygon class="cls-265" points="1534.04 855.73 1547.84 779.84 1476.54 748.43 1534.04 855.73"/><polygon class="cls-266" points="1547.84 779.84 1626.03 648.99 1476.54 748.43 1547.84 779.84"/><polygon class="cls-267" points="1568.53 107.29 1557.04 28.79 1469.64 10.47 1568.53 107.29"/><polygon class="cls-268" points="1485.74 185.8 1568.53 107.29 1469.64 10.47 1485.74 185.8"/><polygon class="cls-269" points="1557.04 28.79 1688.13 10.47 1469.64 10.47 1557.04 28.79"/><polygon class="cls-270" points="1626.03 648.99 1575.43 565.25 1467.34 599.27 1626.03 648.99"/><polygon class="cls-271" points="1476.54 748.43 1626.03 648.99 1467.34 599.27 1476.54 748.43"/><polygon class="cls-272" points="1575.43 565.25 1511.04 476.27 1467.34 599.27 1575.43 565.25"/><polygon class="cls-273" points="1591.53 1313.68 1540.93 1193.31 1465.04 1297.98 1591.53 1313.68"/><polygon class="cls-274" points="1589.23 1418.36 1591.53 1313.68 1465.04 1297.98 1589.23 1418.36"/><polygon class="cls-275" points="1534.04 855.73 1476.54 748.43 1458.14 871.43 1534.04 855.73"/><polygon class="cls-276" points="1575.43 952.55 1534.04 855.73 1458.14 871.43 1575.43 952.55"/><polygon class="cls-277" points="1483.44 1028.44 1575.43 952.55 1458.14 871.43 1483.44 1028.44"/><polygon class="cls-278" points="1540.93 1193.31 1483.44 1028.44 1455.84 1193.31 1540.93 1193.31"/><polygon class="cls-279" points="1465.04 1297.98 1540.93 1193.31 1455.84 1193.31 1465.04 1297.98"/><polygon class="cls-280" points="1589.23 1418.36 1465.04 1297.98 1453.54 1455 1589.23 1418.36"/><polygon class="cls-281" points="1589.23 1507.34 1589.23 1418.36 1453.54 1455 1589.23 1507.34"/><polygon class="cls-282" points="1492.64 1570.14 1589.23 1507.34 1453.54 1455 1492.64 1570.14"/><polygon class="cls-283" points="1639.83 1617.25 1492.64 1570.14 1444.34 1635.57 1639.83 1617.25"/><polygon class="cls-284" points="1715.73 1617.25 1639.83 1617.25 1444.34 1635.57 1715.73 1617.25"/><polygon class="cls-285" points="1996.32 1622.48 1715.73 1617.25 1444.34 1635.57 1996.32 1622.48"/><polygon class="cls-286" points="1540.93 266.92 1485.74 185.8 1439.74 353.28 1540.93 266.92"/><polygon class="cls-287" points="1563.93 340.2 1540.93 266.92 1439.74 353.28 1563.93 340.2"/><polygon class="cls-288" points="1511.04 476.27 1563.93 340.2 1439.74 353.28 1511.04 476.27"/><polygon class="cls-289" points="1476.54 748.43 1467.34 599.27 1423.64 717.03 1476.54 748.43"/><polygon class="cls-290" points="1458.14 871.43 1476.54 748.43 1423.64 717.03 1458.14 871.43"/><polygon class="cls-291" points="1483.44 1028.44 1458.14 871.43 1421.34 944.7 1483.44 1028.44"/><polygon class="cls-292" points="1455.84 1193.31 1483.44 1028.44 1419.04 1122.65 1455.84 1193.31"/><polygon class="cls-293" points="1483.44 1028.44 1421.34 944.7 1419.04 1122.65 1483.44 1028.44"/><polygon class="cls-294" points="1444.34 1635.57 1492.64 1570.14 1412.14 1612.01 1444.34 1635.57"/><polygon class="cls-295" points="1423.64 717.03 1467.34 599.27 1405.24 696.1 1423.64 717.03"/><polygon class="cls-296" points="1485.74 185.8 1469.64 10.47 1405.24 107.29 1485.74 185.8"/><polygon class="cls-297" points="1492.64 1570.14 1453.54 1455 1396.04 1596.31 1492.64 1570.14"/><polygon class="cls-298" points="1412.14 1612.01 1492.64 1570.14 1396.04 1596.31 1412.14 1612.01"/><polygon class="cls-299" points="1467.34 599.27 1511.04 476.27 1382.24 484.13 1467.34 599.27"/><polygon class="cls-300" points="1511.04 476.27 1439.74 353.28 1382.24 484.13 1511.04 476.27"/><polygon class="cls-301" points="1405.24 107.29 1469.64 10.47 1373.04 75.89 1405.24 107.29"/><polygon class="cls-302" points="1465.04 1297.98 1455.84 1193.31 1366.14 1292.75 1465.04 1297.98"/><polygon class="cls-303" points="1439.74 353.28 1485.74 185.8 1363.84 256.46 1439.74 353.28"/><polygon class="cls-304" points="1455.84 1193.31 1419.04 1122.65 1359.24 1117.42 1455.84 1193.31"/><polygon class="cls-305" points="1366.14 1292.75 1455.84 1193.31 1359.24 1117.42 1366.14 1292.75"/><polygon class="cls-306" points="1419.04 1122.65 1421.34 944.7 1359.24 1117.42 1419.04 1122.65"/><polygon class="cls-307" points="1453.54 1455 1465.04 1297.98 1356.94 1400.05 1453.54 1455"/><polygon class="cls-308" points="1465.04 1297.98 1366.14 1292.75 1356.94 1400.05 1465.04 1297.98"/><polygon class="cls-309" points="1467.34 599.27 1382.24 484.13 1352.34 523.38 1467.34 599.27"/><polygon class="cls-310" points="1485.74 185.8 1405.24 107.29 1352.34 146.55 1485.74 185.8"/><polygon class="cls-311" points="1363.84 256.46 1485.74 185.8 1352.34 146.55 1363.84 256.46"/><polygon class="cls-312" points="1405.24 107.29 1373.04 75.89 1352.34 146.55 1405.24 107.29"/><polygon class="cls-313" points="1396.04 1596.31 1453.54 1455 1340.84 1557.06 1396.04 1596.31"/><polygon class="cls-314" points="1359.24 1117.42 1421.34 944.7 1336.24 955.17 1359.24 1117.42"/><polygon class="cls-315" points="1356.94 1400.05 1366.14 1292.75 1336.24 1324.15 1356.94 1400.05"/><polygon class="cls-316" points="1421.34 944.7 1458.14 871.43 1327.04 858.35 1421.34 944.7"/><polygon class="cls-317" points="1336.24 955.17 1421.34 944.7 1327.04 858.35 1336.24 955.17"/><polygon class="cls-318" points="1458.14 871.43 1423.64 717.03 1327.04 858.35 1458.14 871.43"/><polygon class="cls-319" points="1423.64 717.03 1405.24 696.1 1327.04 858.35 1423.64 717.03"/><polygon class="cls-320" points="1405.24 696.1 1467.34 599.27 1322.44 651.61 1405.24 696.1"/><polygon class="cls-321" points="1467.34 599.27 1352.34 523.38 1322.44 651.61 1467.34 599.27"/><polygon class="cls-322" points="1453.54 1455 1356.94 1400.05 1320.14 1509.95 1453.54 1455"/><polygon class="cls-323" points="1340.84 1557.06 1453.54 1455 1320.14 1509.95 1340.84 1557.06"/><polygon class="cls-324" points="1356.94 1400.05 1336.24 1324.15 1308.64 1444.53 1356.94 1400.05"/><polygon class="cls-325" points="1320.14 1509.95 1356.94 1400.05 1308.64 1444.53 1320.14 1509.95"/><polygon class="cls-326" points="1352.34 523.38 1382.24 484.13 1301.75 465.81 1352.34 523.38"/><polygon class="cls-327" points="1382.24 484.13 1439.74 353.28 1301.75 465.81 1382.24 484.13"/><polygon class="cls-328" points="1439.74 353.28 1363.84 256.46 1301.75 465.81 1439.74 353.28"/><polygon class="cls-329" points="1373.04 75.89 1469.64 10.47 1287.95 26.17 1373.04 75.89"/><polygon class="cls-330" points="1301.75 465.81 1363.84 256.46 1285.65 245.99 1301.75 465.81"/><polygon class="cls-331" points="1363.84 256.46 1352.34 146.55 1285.65 245.99 1363.84 256.46"/><polygon class="cls-273" points="1320.14 1509.95 1308.64 1444.53 1269.55 1460.23 1320.14 1509.95"/><polygon class="cls-332" points="1322.44 651.61 1352.34 523.38 1264.95 523.38 1322.44 651.61"/><polygon class="cls-333" points="1352.34 523.38 1301.75 465.81 1264.95 523.38 1352.34 523.38"/><polygon class="cls-334" points="1285.65 245.99 1352.34 146.55 1264.95 104.68 1285.65 245.99"/><polygon class="cls-335" points="1352.34 146.55 1373.04 75.89 1264.95 104.68 1352.34 146.55"/><polygon class="cls-336" points="1373.04 75.89 1287.95 26.17 1264.95 104.68 1373.04 75.89"/><polygon class="cls-337" points="1366.14 1292.75 1359.24 1117.42 1262.65 1190.69 1366.14 1292.75"/><polygon class="cls-338" points="1336.24 1324.15 1366.14 1292.75 1262.65 1190.69 1336.24 1324.15"/><polygon class="cls-339" points="1327.04 858.35 1405.24 696.1 1251.15 764.14 1327.04 858.35"/><polygon class="cls-340" points="1405.24 696.1 1322.44 651.61 1251.15 764.14 1405.24 696.1"/><polygon class="cls-341" points="1412.14 1612.01 1396.04 1596.31 1251.15 1632.95 1412.14 1612.01"/><polygon class="cls-342" points="1396.04 1596.31 1340.84 1557.06 1251.15 1632.95 1396.04 1596.31"/><polygon class="cls-343" points="1444.34 1635.57 1412.14 1612.01 1251.15 1632.95 1444.34 1635.57"/><polygon class="cls-344" points="1320.14 1509.95 1269.55 1460.23 1246.55 1520.42 1320.14 1509.95"/><polygon class="cls-345" points="1340.84 1557.06 1320.14 1509.95 1246.55 1520.42 1340.84 1557.06"/><polygon class="cls-346" points="1251.15 1632.95 1340.84 1557.06 1246.55 1520.42 1251.15 1632.95"/><polygon class="cls-347" points="1336.24 1324.15 1262.65 1190.69 1237.35 1339.86 1336.24 1324.15"/><polygon class="cls-348" points="1308.64 1444.53 1336.24 1324.15 1237.35 1339.86 1308.64 1444.53"/><polygon class="cls-349" points="1269.55 1460.23 1308.64 1444.53 1237.35 1339.86 1269.55 1460.23"/><polygon class="cls-350" points="1264.95 104.68 1287.95 26.17 1235.05 44.49 1264.95 104.68"/><polygon class="cls-351" points="1251.15 1632.95 1246.55 1520.42 1218.95 1588.46 1251.15 1632.95"/><polygon class="cls-352" points="1336.24 955.17 1327.04 858.35 1216.65 926.38 1336.24 955.17"/><polygon class="cls-353" points="1327.04 858.35 1251.15 764.14 1216.65 926.38 1327.04 858.35"/><polygon class="cls-354" points="1322.44 651.61 1264.95 523.38 1212.05 659.46 1322.44 651.61"/><polygon class="cls-355" points="1251.15 764.14 1322.44 651.61 1212.05 659.46 1251.15 764.14"/><polygon class="cls-356" points="1262.65 1190.69 1359.24 1117.42 1209.75 1054.61 1262.65 1190.69"/><polygon class="cls-357" points="1359.24 1117.42 1336.24 955.17 1209.75 1054.61 1359.24 1117.42"/><polygon class="cls-358" points="1336.24 955.17 1216.65 926.38 1209.75 1054.61 1336.24 955.17"/><polygon class="cls-359" points="1262.65 1190.69 1209.75 1054.61 1202.85 1167.14 1262.65 1190.69"/><polygon class="cls-360" points="1251.15 764.14 1212.05 659.46 1200.55 711.8 1251.15 764.14"/><polygon class="cls-361" points="1285.65 245.99 1264.95 104.68 1198.25 191.03 1285.65 245.99"/><polygon class="cls-362" points="1264.95 104.68 1235.05 44.49 1195.95 159.63 1264.95 104.68"/><polygon class="cls-363" points="1198.25 191.03 1264.95 104.68 1195.95 159.63 1198.25 191.03"/><polygon class="cls-362" points="1195.95 159.63 1235.05 44.49 1195.95 36.64 1195.95 159.63"/><polygon class="cls-364" points="1235.05 44.49 1287.95 26.17 1195.95 36.64 1235.05 44.49"/><polygon class="cls-365" points="1212.05 659.46 1264.95 523.38 1191.35 567.87 1212.05 659.46"/><polygon class="cls-366" points="1264.95 523.38 1301.75 465.81 1179.85 374.22 1264.95 523.38"/><polygon class="cls-367" points="1301.75 465.81 1285.65 245.99 1179.85 374.22 1301.75 465.81"/><polygon class="cls-368" points="1285.65 245.99 1198.25 191.03 1177.55 272.16 1285.65 245.99"/><polygon class="cls-369" points="1179.85 374.22 1285.65 245.99 1177.55 272.16 1179.85 374.22"/><polygon class="cls-370" points="1237.35 1339.86 1262.65 1190.69 1175.25 1258.73 1237.35 1339.86"/><polygon class="cls-371" points="1262.65 1190.69 1202.85 1167.14 1175.25 1258.73 1262.65 1190.69"/><polygon class="cls-372" points="1237.35 1339.86 1175.25 1258.73 1154.55 1402.66 1237.35 1339.86"/><polygon class="cls-373" points="1246.55 1520.42 1269.55 1460.23 1154.55 1402.66 1246.55 1520.42"/><polygon class="cls-374" points="1269.55 1460.23 1237.35 1339.86 1154.55 1402.66 1269.55 1460.23"/><polygon class="cls-375" points="1251.15 1632.95 1218.95 1588.46 1152.25 1632.95 1251.15 1632.95"/><polygon class="cls-376" points="1191.35 567.87 1264.95 523.38 1133.85 484.13 1191.35 567.87"/><polygon class="cls-377" points="1264.95 523.38 1179.85 374.22 1133.85 484.13 1264.95 523.38"/><polygon class="cls-378" points="1251.15 764.14 1200.55 711.8 1129.25 761.52 1251.15 764.14"/><polygon class="cls-379" points="1216.65 926.38 1251.15 764.14 1110.85 855.73 1216.65 926.38"/><polygon class="cls-380" points="1251.15 764.14 1129.25 761.52 1110.85 855.73 1251.15 764.14"/><polygon class="cls-381" points="1195.95 36.64 1287.95 26.17 1108.55 23.55 1195.95 36.64"/><polygon class="cls-382" points="1152.25 1632.95 1218.95 1588.46 1103.95 1543.97 1152.25 1632.95"/><polygon class="cls-383" points="1218.95 1588.46 1246.55 1520.42 1103.95 1543.97 1218.95 1588.46"/><polygon class="cls-384" points="1246.55 1520.42 1154.55 1402.66 1103.95 1543.97 1246.55 1520.42"/><polygon class="cls-385" points="1195.95 159.63 1195.95 36.64 1097.05 107.29 1195.95 159.63"/><polygon class="cls-386" points="1195.95 36.64 1108.55 23.55 1097.05 107.29 1195.95 36.64"/><polygon class="cls-330" points="1179.85 374.22 1177.55 272.16 1092.45 264.31 1179.85 374.22"/><polygon class="cls-387" points="1175.25 1258.73 1202.85 1167.14 1090.15 1154.06 1175.25 1258.73"/><polygon class="cls-388" points="1202.85 1167.14 1209.75 1054.61 1090.15 1154.06 1202.85 1167.14"/><polygon class="cls-389" points="1212.05 659.46 1191.35 567.87 1083.26 596.65 1212.05 659.46"/><polygon class="cls-390" points="1200.55 711.8 1212.05 659.46 1083.26 596.65 1200.55 711.8"/><polygon class="cls-391" points="1191.35 567.87 1133.85 484.13 1083.26 596.65 1191.35 567.87"/><polygon class="cls-392" points="1177.55 272.16 1198.25 191.03 1083.26 227.67 1177.55 272.16"/><polygon class="cls-393" points="1092.45 264.31 1177.55 272.16 1083.26 227.67 1092.45 264.31"/><polygon class="cls-394" points="1154.55 1402.66 1175.25 1258.73 1080.95 1347.7 1154.55 1402.66"/><polygon class="cls-395" points="1175.25 1258.73 1090.15 1154.06 1080.95 1347.7 1175.25 1258.73"/><polygon class="cls-396" points="1195.95 159.63 1097.05 107.29 1080.95 167.48 1195.95 159.63"/><polygon class="cls-397" points="1198.25 191.03 1195.95 159.63 1080.95 167.48 1198.25 191.03"/><polygon class="cls-398" points="1083.26 227.67 1198.25 191.03 1080.95 167.48 1083.26 227.67"/><polygon class="cls-399" points="1209.75 1054.61 1216.65 926.38 1071.76 1023.21 1209.75 1054.61"/><polygon class="cls-400" points="1216.65 926.38 1110.85 855.73 1071.76 1023.21 1216.65 926.38"/><polygon class="cls-308" points="1103.95 1543.97 1154.55 1402.66 1071.76 1413.13 1103.95 1543.97"/><polygon class="cls-401" points="1154.55 1402.66 1080.95 1347.7 1071.76 1413.13 1154.55 1402.66"/><polygon class="cls-402" points="1090.15 1154.06 1209.75 1054.61 1067.15 1101.72 1090.15 1154.06"/><polygon class="cls-403" points="1209.75 1054.61 1071.76 1023.21 1067.15 1101.72 1209.75 1054.61"/><polygon class="cls-404" points="1179.85 374.22 1092.45 264.31 1057.96 345.43 1179.85 374.22"/><polygon class="cls-405" points="1129.25 761.52 1200.55 711.8 1053.36 651.61 1129.25 761.52"/><polygon class="cls-389" points="1200.55 711.8 1083.26 596.65 1053.36 651.61 1200.55 711.8"/><polygon class="cls-406" points="1097.05 107.29 1108.55 23.55 1046.45 73.28 1097.05 107.29"/><polygon class="cls-407" points="1080.95 167.48 1097.05 107.29 1046.45 73.28 1080.95 167.48"/><polygon class="cls-408" points="1133.85 484.13 1179.85 374.22 1044.16 421.32 1133.85 484.13"/><polygon class="cls-326" points="1179.85 374.22 1057.96 345.43 1044.16 421.32 1179.85 374.22"/><polygon class="cls-409" points="1053.36 651.61 1083.26 596.65 1034.95 607.12 1053.36 651.61"/><polygon class="cls-410" points="1071.76 1023.21 1110.85 855.73 1023.46 913.3 1071.76 1023.21"/><polygon class="cls-411" points="1083.26 227.67 1080.95 167.48 1023.46 211.97 1083.26 227.67"/><polygon class="cls-412" points="1092.45 264.31 1083.26 227.67 1023.46 211.97 1092.45 264.31"/><polygon class="cls-413" points="1034.95 607.12 1083.26 596.65 1018.86 444.87 1034.95 607.12"/><polygon class="cls-414" points="1083.26 596.65 1133.85 484.13 1018.86 444.87 1083.26 596.65"/><polygon class="cls-415" points="1133.85 484.13 1044.16 421.32 1018.86 444.87 1133.85 484.13"/><polygon class="cls-416" points="1046.45 73.28 1108.55 23.55 1016.56 44.49 1046.45 73.28"/><polygon class="cls-417" points="1071.76 1413.13 1080.95 1347.7 1014.26 1436.68 1071.76 1413.13"/><polygon class="cls-418" points="1103.95 1543.97 1071.76 1413.13 1014.26 1436.68 1103.95 1543.97"/><polygon class="cls-419" points="1046.45 73.28 1016.56 44.49 1009.66 94.21 1046.45 73.28"/><polygon class="cls-420" points="1080.95 167.48 1046.45 73.28 1009.66 94.21 1080.95 167.48"/><polygon class="cls-421" points="1023.46 211.97 1080.95 167.48 1009.66 94.21 1023.46 211.97"/><polygon class="cls-422" points="1129.25 761.52 1053.36 651.61 1002.76 748.43 1129.25 761.52"/><polygon class="cls-423" points="1018.86 444.87 1044.16 421.32 1000.46 437.02 1018.86 444.87"/><polygon class="cls-424" points="1071.76 1023.21 1023.46 913.3 993.56 929 1071.76 1023.21"/><polygon class="cls-425" points="993.56 929 1023.46 913.3 993.56 798.15 993.56 929"/><polygon class="cls-426" points="1023.46 913.3 1110.85 855.73 993.56 798.15 1023.46 913.3"/><polygon class="cls-427" points="1110.85 855.73 1129.25 761.52 993.56 798.15 1110.85 855.73"/><polygon class="cls-428" points="1129.25 761.52 1002.76 748.43 993.56 798.15 1129.25 761.52"/><polygon class="cls-429" points="1044.16 421.32 1057.96 345.43 991.26 353.28 1044.16 421.32"/><polygon class="cls-430" points="1000.46 437.02 1044.16 421.32 991.26 353.28 1000.46 437.02"/><polygon class="cls-431" points="1152.25 1632.95 1103.95 1543.97 986.66 1630.33 1152.25 1632.95"/><polygon class="cls-432" points="991.26 353.28 1057.96 345.43 984.36 259.07 991.26 353.28"/><polygon class="cls-433" points="1057.96 345.43 1092.45 264.31 984.36 259.07 1057.96 345.43"/><polygon class="cls-434" points="1092.45 264.31 1023.46 211.97 984.36 259.07 1092.45 264.31"/><polygon class="cls-435" points="1080.95 1347.7 1090.15 1154.06 968.26 1269.2 1080.95 1347.7"/><polygon class="cls-436" points="1014.26 1436.68 1080.95 1347.7 968.26 1269.2 1014.26 1436.68"/><polygon class="cls-437" points="1103.95 1543.97 1014.26 1436.68 963.66 1509.95 1103.95 1543.97"/><polygon class="cls-438" points="986.66 1630.33 1103.95 1543.97 963.66 1509.95 986.66 1630.33"/><polygon class="cls-439" points="1053.36 651.61 1034.95 607.12 961.36 628.06 1053.36 651.61"/><polygon class="cls-440" points="1002.76 748.43 1053.36 651.61 961.36 628.06 1002.76 748.43"/><polygon class="cls-441" points="1023.46 211.97 1009.66 94.21 961.36 138.69 1023.46 211.97"/><polygon class="cls-442" points="984.36 259.07 1023.46 211.97 961.36 138.69 984.36 259.07"/><polygon class="cls-443" points="1067.15 1101.72 1071.76 1023.21 959.06 1083.4 1067.15 1101.72"/><polygon class="cls-444" points="961.36 628.06 1034.95 607.12 956.76 554.78 961.36 628.06"/><polygon class="cls-366" points="1034.95 607.12 1018.86 444.87 956.76 554.78 1034.95 607.12"/><polygon class="cls-364" points="1009.66 94.21 1016.56 44.49 956.76 49.72 1009.66 94.21"/><polygon class="cls-445" points="961.36 138.69 1009.66 94.21 956.76 49.72 961.36 138.69"/><polygon class="cls-446" points="1071.76 1023.21 993.56 929 952.16 1023.21 1071.76 1023.21"/><polygon class="cls-447" points="959.06 1083.4 1071.76 1023.21 952.16 1023.21 959.06 1083.4"/><polygon class="cls-448" points="968.26 1269.2 1090.15 1154.06 949.86 1122.65 968.26 1269.2"/><polygon class="cls-449" points="1090.15 1154.06 1067.15 1101.72 949.86 1122.65 1090.15 1154.06"/><polygon class="cls-450" points="1067.15 1101.72 959.06 1083.4 949.86 1122.65 1067.15 1101.72"/><polygon class="cls-451" points="1018.86 444.87 1000.46 437.02 949.86 476.27 1018.86 444.87"/><polygon class="cls-452" points="956.76 554.78 1018.86 444.87 949.86 476.27 956.76 554.78"/><polygon class="cls-453" points="1000.46 437.02 991.26 353.28 926.86 460.57 1000.46 437.02"/><polygon class="cls-404" points="949.86 476.27 1000.46 437.02 926.86 460.57 949.86 476.27"/><polygon class="cls-328" points="956.76 554.78 949.86 476.27 926.86 460.57 956.76 554.78"/><polygon class="cls-454" points="993.56 929 993.56 798.15 906.16 892.36 993.56 929"/><polygon class="cls-455" points="952.16 1023.21 993.56 929 906.16 892.36 952.16 1023.21"/><polygon class="cls-456" points="991.26 353.28 984.36 259.07 899.26 311.41 991.26 353.28"/><polygon class="cls-457" points="984.36 259.07 961.36 138.69 892.36 227.67 984.36 259.07"/><polygon class="cls-458" points="899.26 311.41 984.36 259.07 892.36 227.67 899.26 311.41"/><polygon class="cls-459" points="906.16 892.36 993.56 798.15 890.06 842.64 906.16 892.36"/><polygon class="cls-364" points="961.36 138.69 956.76 49.72 885.46 138.69 961.36 138.69"/><polygon class="cls-362" points="892.36 227.67 961.36 138.69 885.46 138.69 892.36 227.67"/><polygon class="cls-460" points="986.66 1630.33 963.66 1509.95 880.86 1604.16 986.66 1630.33"/><polygon class="cls-461" points="926.86 460.57 991.26 353.28 871.66 348.05 926.86 460.57"/><polygon class="cls-462" points="991.26 353.28 899.26 311.41 871.66 348.05 991.26 353.28"/><polygon class="cls-463" points="885.46 138.69 956.76 49.72 862.46 23.55 885.46 138.69"/><polygon class="cls-464" points="1016.56 44.49 1108.55 23.55 862.46 23.55 1016.56 44.49"/><polygon class="cls-465" points="956.76 49.72 1016.56 44.49 862.46 23.55 956.76 49.72"/><polygon class="cls-413" points="1002.76 748.43 961.36 628.06 860.16 714.42 1002.76 748.43"/><polygon class="cls-444" points="993.56 798.15 1002.76 748.43 860.16 714.42 993.56 798.15"/><polygon class="cls-466" points="890.06 842.64 993.56 798.15 860.16 714.42 890.06 842.64"/><polygon class="cls-467" points="968.26 1269.2 949.86 1122.65 857.87 1216.86 968.26 1269.2"/><polygon class="cls-468" points="899.26 311.41 892.36 227.67 850.96 256.46 899.26 311.41"/><polygon class="cls-469" points="871.66 348.05 899.26 311.41 850.96 256.46 871.66 348.05"/><polygon class="cls-470" points="892.36 227.67 885.46 138.69 850.96 256.46 892.36 227.67"/><polygon class="cls-471" points="857.87 1216.86 949.86 1122.65 848.67 1080.78 857.87 1216.86"/><polygon class="cls-472" points="959.06 1083.4 952.16 1023.21 848.67 1080.78 959.06 1083.4"/><polygon class="cls-473" points="949.86 1122.65 959.06 1083.4 848.67 1080.78 949.86 1122.65"/><polygon class="cls-474" points="956.76 554.78 926.86 460.57 846.37 471.04 956.76 554.78"/><polygon class="cls-475" points="926.86 460.57 871.66 348.05 846.37 471.04 926.86 460.57"/><polygon class="cls-476" points="880.86 1604.16 963.66 1509.95 837.17 1439.3 880.86 1604.16"/><polygon class="cls-477" points="968.26 1269.2 857.87 1216.86 837.17 1439.3 968.26 1269.2"/><polygon class="cls-478" points="1014.26 1436.68 968.26 1269.2 837.17 1439.3 1014.26 1436.68"/><polygon class="cls-479" points="963.66 1509.95 1014.26 1436.68 837.17 1439.3 963.66 1509.95"/><polygon class="cls-480" points="890.06 842.64 860.16 714.42 834.86 800.77 890.06 842.64"/><polygon class="cls-481" points="885.46 138.69 862.46 23.55 834.86 102.06 885.46 138.69"/><polygon class="cls-480" points="956.76 554.78 846.37 471.04 804.97 531.23 956.76 554.78"/><polygon class="cls-482" points="906.16 892.36 890.06 842.64 798.07 902.83 906.16 892.36"/><polygon class="cls-483" points="890.06 842.64 834.86 800.77 798.07 902.83 890.06 842.64"/><polygon class="cls-484" points="850.96 256.46 885.46 138.69 798.07 240.76 850.96 256.46"/><polygon class="cls-485" points="906.16 892.36 798.07 902.83 788.87 1012.74 906.16 892.36"/><polygon class="cls-486" points="952.16 1023.21 906.16 892.36 788.87 1012.74 952.16 1023.21"/><polygon class="cls-487" points="848.67 1080.78 952.16 1023.21 788.87 1012.74 848.67 1080.78"/><polygon class="cls-474" points="860.16 714.42 961.36 628.06 788.87 604.5 860.16 714.42"/><polygon class="cls-488" points="961.36 628.06 956.76 554.78 788.87 604.5 961.36 628.06"/><polygon class="cls-489" points="956.76 554.78 804.97 531.23 788.87 604.5 956.76 554.78"/><polygon class="cls-490" points="885.46 138.69 834.86 102.06 786.57 141.31 885.46 138.69"/><polygon class="cls-491" points="798.07 240.76 885.46 138.69 786.57 141.31 798.07 240.76"/><polygon class="cls-492" points="846.37 471.04 871.66 348.05 784.27 382.07 846.37 471.04"/><polygon class="cls-493" points="850.96 256.46 798.07 240.76 781.97 316.64 850.96 256.46"/><polygon class="cls-494" points="871.66 348.05 850.96 256.46 781.97 316.64 871.66 348.05"/><polygon class="cls-495" points="784.27 382.07 871.66 348.05 781.97 316.64 784.27 382.07"/><polygon class="cls-496" points="834.86 800.77 860.16 714.42 779.67 766.75 834.86 800.77"/><polygon class="cls-497" points="860.16 714.42 788.87 604.5 779.67 766.75 860.16 714.42"/><polygon class="cls-498" points="798.07 902.83 834.86 800.77 779.67 766.75 798.07 902.83"/><polygon class="cls-499" points="857.87 1216.86 848.67 1080.78 777.37 1120.04 857.87 1216.86"/><polygon class="cls-500" points="848.67 1080.78 788.87 1012.74 777.37 1120.04 848.67 1080.78"/><polygon class="cls-501" points="837.17 1439.3 857.87 1216.86 775.07 1334.62 837.17 1439.3"/><polygon class="cls-502" points="834.86 102.06 862.46 23.55 775.07 99.44 834.86 102.06"/><polygon class="cls-503" points="786.57 141.31 834.86 102.06 775.07 99.44 786.57 141.31"/><polygon class="cls-504" points="880.86 1604.16 837.17 1439.3 772.77 1543.97 880.86 1604.16"/><polygon class="cls-505" points="880.86 1604.16 772.77 1543.97 768.17 1630.33 880.86 1604.16"/><polygon class="cls-506" points="986.66 1630.33 880.86 1604.16 768.17 1630.33 986.66 1630.33"/><polygon class="cls-507" points="804.97 531.23 846.37 471.04 754.37 429.17 804.97 531.23"/><polygon class="cls-508" points="846.37 471.04 784.27 382.07 754.37 429.17 846.37 471.04"/><polygon class="cls-509" points="788.87 1012.74 798.07 902.83 742.87 963.02 788.87 1012.74"/><polygon class="cls-510" points="775.07 99.44 862.46 23.55 735.97 20.94 775.07 99.44"/><polygon class="cls-511" points="857.87 1216.86 777.37 1120.04 729.07 1198.54 857.87 1216.86"/><polygon class="cls-512" points="775.07 1334.62 857.87 1216.86 729.07 1198.54 775.07 1334.62"/><polygon class="cls-513" points="775.07 1334.62 729.07 1198.54 719.87 1295.37 775.07 1334.62"/><polygon class="cls-514" points="779.67 766.75 788.87 604.5 719.87 646.38 779.67 766.75"/><polygon class="cls-515" points="775.07 1334.62 719.87 1295.37 712.97 1415.74 775.07 1334.62"/><polygon class="cls-516" points="837.17 1439.3 775.07 1334.62 712.97 1415.74 837.17 1439.3"/><polygon class="cls-517" points="772.77 1543.97 837.17 1439.3 712.97 1415.74 772.77 1543.97"/><polygon class="cls-518" points="798.07 902.83 779.67 766.75 703.77 879.28 798.07 902.83"/><polygon class="cls-519" points="742.87 963.02 798.07 902.83 703.77 879.28 742.87 963.02"/><polygon class="cls-520" points="798.07 240.76 786.57 141.31 701.47 206.74 798.07 240.76"/><polygon class="cls-521" points="781.97 316.64 798.07 240.76 701.47 206.74 781.97 316.64"/><polygon class="cls-522" points="804.97 531.23 754.37 429.17 694.57 518.15 804.97 531.23"/><polygon class="cls-523" points="788.87 604.5 804.97 531.23 694.57 518.15 788.87 604.5"/><polygon class="cls-524" points="719.87 646.38 788.87 604.5 694.57 518.15 719.87 646.38"/><polygon class="cls-525" points="729.07 1198.54 777.37 1120.04 680.77 1086.02 729.07 1198.54"/><polygon class="cls-526" points="777.37 1120.04 788.87 1012.74 680.77 1086.02 777.37 1120.04"/><polygon class="cls-527" points="788.87 1012.74 742.87 963.02 680.77 1086.02 788.87 1012.74"/><polygon class="cls-528" points="781.97 316.64 701.47 206.74 678.47 316.64 781.97 316.64"/><polygon class="cls-529" points="784.27 382.07 781.97 316.64 678.47 316.64 784.27 382.07"/><polygon class="cls-530" points="754.37 429.17 784.27 382.07 678.47 316.64 754.37 429.17"/><polygon class="cls-531" points="779.67 766.75 719.87 646.38 669.27 740.59 779.67 766.75"/><polygon class="cls-532" points="703.77 879.28 779.67 766.75 669.27 821.71 703.77 879.28"/><polygon class="cls-533" points="779.67 766.75 669.27 740.59 669.27 821.71 779.67 766.75"/><polygon class="cls-534" points="775.07 99.44 735.97 20.94 669.27 107.29 775.07 99.44"/><polygon class="cls-535" points="786.57 141.31 775.07 99.44 669.27 107.29 786.57 141.31"/><polygon class="cls-536" points="701.47 206.74 786.57 141.31 669.27 107.29 701.47 206.74"/><polygon class="cls-537" points="719.87 646.38 694.57 518.15 648.57 612.36 719.87 646.38"/><polygon class="cls-538" points="669.27 740.59 719.87 646.38 648.57 612.36 669.27 740.59"/><polygon class="cls-539" points="694.57 518.15 754.37 429.17 646.27 392.54 694.57 518.15"/><polygon class="cls-540" points="754.37 429.17 678.47 316.64 646.27 392.54 754.37 429.17"/><polygon class="cls-541" points="768.17 1630.33 772.77 1543.97 634.77 1515.19 768.17 1630.33"/><polygon class="cls-541" points="772.77 1543.97 712.97 1415.74 634.77 1515.19 772.77 1543.97"/><polygon class="cls-542" points="703.77 879.28 669.27 821.71 632.47 955.17 703.77 879.28"/><polygon class="cls-543" points="742.87 963.02 703.77 879.28 632.47 955.17 742.87 963.02"/><polygon class="cls-544" points="680.77 1086.02 742.87 963.02 632.47 955.17 680.77 1086.02"/><polygon class="cls-545" points="669.27 107.29 735.97 20.94 620.97 28.79 669.27 107.29"/><polygon class="cls-546" points="719.87 1295.37 729.07 1198.54 616.37 1161.91 719.87 1295.37"/><polygon class="cls-547" points="729.07 1198.54 680.77 1086.02 616.37 1161.91 729.07 1198.54"/><polygon class="cls-548" points="669.27 821.71 669.27 740.59 616.37 795.54 669.27 821.71"/><polygon class="cls-549" points="646.27 392.54 678.47 316.64 611.77 293.1 646.27 392.54"/><polygon class="cls-550" points="678.47 316.64 701.47 206.74 611.77 293.1 678.47 316.64"/><polygon class="cls-551" points="694.57 518.15 646.27 392.54 602.58 478.89 694.57 518.15"/><polygon class="cls-552" points="634.77 1515.19 712.97 1415.74 600.27 1441.91 634.77 1515.19"/><polygon class="cls-553" points="701.47 206.74 669.27 107.29 597.98 162.25 701.47 206.74"/><polygon class="cls-554" points="611.77 293.1 701.47 206.74 597.98 162.25 611.77 293.1"/><polygon class="cls-555" points="669.27 107.29 620.97 28.79 597.98 162.25 669.27 107.29"/><polygon class="cls-556" points="712.97 1415.74 719.87 1295.37 593.38 1355.56 712.97 1415.74"/><polygon class="cls-557" points="600.27 1441.91 712.97 1415.74 593.38 1355.56 600.27 1441.91"/><polygon class="cls-287" points="669.27 740.59 648.57 612.36 593.38 664.69 669.27 740.59"/><polygon class="cls-558" points="616.37 795.54 669.27 740.59 593.38 664.69 616.37 795.54"/><polygon class="cls-559" points="719.87 1295.37 616.37 1161.91 584.17 1295.37 719.87 1295.37"/><polygon class="cls-560" points="593.38 1355.56 719.87 1295.37 584.17 1295.37 593.38 1355.56"/><polygon class="cls-561" points="680.77 1086.02 632.47 955.17 577.28 986.57 680.77 1086.02"/><polygon class="cls-562" points="593.38 664.69 648.57 612.36 572.67 536.47 593.38 664.69"/><polygon class="cls-563" points="648.57 612.36 694.57 518.15 572.67 536.47 648.57 612.36"/><polygon class="cls-564" points="694.57 518.15 602.58 478.89 572.67 536.47 694.57 518.15"/><polygon class="cls-565" points="577.28 986.57 632.47 955.17 570.38 934.24 577.28 986.57"/><polygon class="cls-566" points="632.47 955.17 669.27 821.71 570.38 934.24 632.47 955.17"/><polygon class="cls-567" points="669.27 821.71 616.37 795.54 570.38 934.24 669.27 821.71"/><polygon class="cls-568" points="634.77 1515.19 600.27 1441.91 563.48 1567.53 634.77 1515.19"/><polygon class="cls-569" points="768.17 1630.33 634.77 1515.19 563.48 1567.53 768.17 1630.33"/><polygon class="cls-570" points="597.98 162.25 620.97 28.79 545.08 86.36 597.98 162.25"/><polygon class="cls-571" points="584.17 1295.37 616.37 1161.91 531.28 1198.54 584.17 1295.37"/><polygon class="cls-572" points="531.28 1198.54 616.37 1161.91 531.28 1104.33 531.28 1198.54"/><polygon class="cls-573" points="616.37 1161.91 680.77 1086.02 531.28 1104.33 616.37 1161.91"/><polygon class="cls-574" points="680.77 1086.02 577.28 986.57 531.28 1104.33 680.77 1086.02"/><polygon class="cls-575" points="616.37 795.54 593.38 664.69 531.28 724.88 616.37 795.54"/><polygon class="cls-576" points="593.38 664.69 572.67 536.47 524.38 601.89 593.38 664.69"/><polygon class="cls-577" points="531.28 724.88 593.38 664.69 524.38 601.89 531.28 724.88"/><polygon class="cls-578" points="570.38 934.24 616.37 795.54 519.78 881.9 570.38 934.24"/><polygon class="cls-579" points="572.67 536.47 602.58 478.89 519.78 468.43 572.67 536.47"/><polygon class="cls-580" points="602.58 478.89 646.27 392.54 519.78 468.43 602.58 478.89"/><polygon class="cls-581" points="593.38 1355.56 584.17 1295.37 508.28 1279.67 593.38 1355.56"/><polygon class="cls-582" points="584.17 1295.37 531.28 1198.54 508.28 1279.67 584.17 1295.37"/><polygon class="cls-583" points="545.08 86.36 620.97 28.79 508.28 2.62 545.08 86.36"/><polygon class="cls-584" points="620.97 28.79 735.97 20.94 508.28 2.62 620.97 28.79"/><polygon class="cls-585" points="646.27 392.54 611.77 293.1 501.38 329.73 646.27 392.54"/><polygon class="cls-586" points="519.78 468.43 646.27 392.54 501.38 329.73 519.78 468.43"/><polygon class="cls-587" points="616.37 795.54 531.28 724.88 489.88 787.69 616.37 795.54"/><polygon class="cls-588" points="519.78 881.9 616.37 795.54 489.88 787.69 519.78 881.9"/><polygon class="cls-589" points="768.17 1630.33 563.48 1567.53 487.58 1614.63 768.17 1630.33"/><polygon class="cls-590" points="597.98 162.25 545.08 86.36 482.98 188.42 597.98 162.25"/><polygon class="cls-591" points="611.77 293.1 597.98 162.25 482.98 188.42 611.77 293.1"/><polygon class="cls-592" points="501.38 329.73 611.77 293.1 482.98 188.42 501.38 329.73"/><polygon class="cls-593" points="563.48 1567.53 600.27 1441.91 478.38 1517.8 563.48 1567.53"/><polygon class="cls-594" points="487.58 1614.63 563.48 1567.53 478.38 1517.8 487.58 1614.63"/><polygon class="cls-595" points="524.38 601.89 572.67 536.47 476.08 505.06 524.38 601.89"/><polygon class="cls-596" points="572.67 536.47 519.78 468.43 476.08 505.06 572.67 536.47"/><polygon class="cls-597" points="531.28 1104.33 577.28 986.57 462.28 991.81 531.28 1104.33"/><polygon class="cls-598" points="577.28 986.57 570.38 934.24 462.28 991.81 577.28 986.57"/><polygon class="cls-599" points="570.38 934.24 519.78 881.9 462.28 991.81 570.38 934.24"/><polygon class="cls-600" points="487.58 1614.63 478.38 1517.8 455.38 1619.86 487.58 1614.63"/><polygon class="cls-601" points="768.17 1630.33 487.58 1614.63 455.38 1619.86 768.17 1630.33"/><polygon class="cls-602" points="593.38 1355.56 508.28 1279.67 450.78 1334.62 593.38 1355.56"/><polygon class="cls-603" points="600.27 1441.91 593.38 1355.56 450.78 1334.62 600.27 1441.91"/><polygon class="cls-604" points="478.38 1517.8 600.27 1441.91 450.78 1334.62 478.38 1517.8"/><polygon class="cls-605" points="545.08 86.36 508.28 2.62 450.78 83.74 545.08 86.36"/><polygon class="cls-606" points="482.98 188.42 545.08 86.36 450.78 83.74 482.98 188.42"/><polygon class="cls-607" points="531.28 1104.33 462.28 991.81 448.48 1080.78 531.28 1104.33"/><polygon class="cls-608" points="450.78 83.74 508.28 2.62 441.58 49.72 450.78 83.74"/><polygon class="cls-609" points="519.78 468.43 501.38 329.73 439.28 387.3 519.78 468.43"/><polygon class="cls-610" points="476.08 505.06 519.78 468.43 439.28 387.3 476.08 505.06"/><polygon class="cls-611" points="531.28 724.88 524.38 601.89 434.68 711.8 531.28 724.88"/><polygon class="cls-612" points="489.88 787.69 531.28 724.88 434.68 711.8 489.88 787.69"/><polygon class="cls-613" points="519.78 881.9 489.88 787.69 430.08 892.36 519.78 881.9"/><polygon class="cls-614" points="462.28 991.81 519.78 881.9 430.08 892.36 462.28 991.81"/><polygon class="cls-615" points="501.38 329.73 482.98 188.42 420.88 196.27 501.38 329.73"/><polygon class="cls-616" points="482.98 188.42 450.78 83.74 420.88 196.27 482.98 188.42"/><polygon class="cls-617" points="531.28 1198.54 531.28 1104.33 418.58 1159.29 531.28 1198.54"/><polygon class="cls-618" points="531.28 1104.33 448.48 1080.78 418.58 1159.29 531.28 1104.33"/><polygon class="cls-619" points="508.28 1279.67 531.28 1198.54 411.68 1263.96 508.28 1279.67"/><polygon class="cls-620" points="531.28 1198.54 418.58 1159.29 411.68 1263.96 531.28 1198.54"/><polygon class="cls-621" points="450.78 1334.62 508.28 1279.67 411.68 1263.96 450.78 1334.62"/><polygon class="cls-622" points="478.38 1517.8 450.78 1334.62 407.08 1455 478.38 1517.8"/><polygon class="cls-53" points="416.28 1483.78 478.38 1517.8 407.08 1455 416.28 1483.78"/><polygon class="cls-623" points="439.28 387.3 501.38 329.73 407.08 363.75 439.28 387.3"/><polygon class="cls-610" points="476.08 505.06 439.28 387.3 393.28 499.83 476.08 505.06"/><polygon class="cls-624" points="439.28 387.3 407.08 363.75 393.28 499.83 439.28 387.3"/><polygon class="cls-625" points="455.38 1619.86 478.38 1517.8 384.08 1572.76 455.38 1619.86"/><polygon class="cls-626" points="478.38 1517.8 416.28 1483.78 384.08 1572.76 478.38 1517.8"/><polygon class="cls-627" points="501.38 329.73 420.88 196.27 384.08 298.33 501.38 329.73"/><polygon class="cls-628" points="407.08 363.75 501.38 329.73 384.08 298.33 407.08 363.75"/><polygon class="cls-629" points="489.88 787.69 434.68 711.8 379.49 782.46 489.88 787.69"/><polygon class="cls-630" points="430.08 892.36 489.88 787.69 379.49 782.46 430.08 892.36"/><polygon class="cls-631" points="441.58 49.72 508.28 2.62 377.19 7.85 441.58 49.72"/><polygon class="cls-632" points="448.48 1080.78 462.28 991.81 374.89 968.25 448.48 1080.78"/><polygon class="cls-633" points="462.28 991.81 430.08 892.36 374.89 968.25 462.28 991.81"/><polygon class="cls-634" points="434.68 711.8 524.38 601.89 365.69 580.96 434.68 711.8"/><polygon class="cls-635" points="524.38 601.89 476.08 505.06 365.69 580.96 524.38 601.89"/><polygon class="cls-636" points="476.08 505.06 393.28 499.83 365.69 580.96 476.08 505.06"/><polygon class="cls-637" points="411.68 1263.96 418.58 1159.29 361.09 1172.37 411.68 1263.96"/><polygon class="cls-638" points="420.88 196.27 450.78 83.74 356.49 159.63 420.88 196.27"/><polygon class="cls-639" points="384.08 298.33 420.88 196.27 356.49 159.63 384.08 298.33"/><polygon class="cls-640" points="450.78 1334.62 411.68 1263.96 342.69 1371.26 450.78 1334.62"/><polygon class="cls-641" points="407.08 1455 450.78 1334.62 342.69 1371.26 407.08 1455"/><polygon class="cls-642" points="407.08 1455 342.69 1371.26 340.39 1494.25 407.08 1455"/><polygon class="cls-643" points="416.28 1483.78 407.08 1455 340.39 1494.25 416.28 1483.78"/><polygon class="cls-644" points="384.08 1572.76 416.28 1483.78 340.39 1494.25 384.08 1572.76"/><polygon class="cls-645" points="379.49 782.46 434.68 711.8 340.39 719.65 379.49 782.46"/><polygon class="cls-646" points="434.68 711.8 365.69 580.96 340.39 719.65 434.68 711.8"/><polygon class="cls-647" points="441.58 49.72 377.19 7.85 338.09 107.29 441.58 49.72"/><polygon class="cls-648" points="450.78 83.74 441.58 49.72 338.09 107.29 450.78 83.74"/><polygon class="cls-649" points="356.49 159.63 450.78 83.74 338.09 107.29 356.49 159.63"/><polygon class="cls-650" points="411.68 1263.96 361.09 1172.37 335.79 1209.01 411.68 1263.96"/><polygon class="cls-651" points="384.08 1572.76 340.39 1494.25 324.29 1583.23 384.08 1572.76"/><polygon class="cls-652" points="455.38 1619.86 384.08 1572.76 324.29 1583.23 455.38 1619.86"/><polygon class="cls-653" points="448.48 1080.78 374.89 968.25 324.29 1044.14 448.48 1080.78"/><polygon class="cls-654" points="418.58 1159.29 448.48 1080.78 324.29 1044.14 418.58 1159.29"/><polygon class="cls-655" points="361.09 1172.37 418.58 1159.29 324.29 1044.14 361.09 1172.37"/><polygon class="cls-656" points="365.69 580.96 393.28 499.83 321.99 554.78 365.69 580.96"/><polygon class="cls-657" points="407.08 363.75 384.08 298.33 315.09 423.94 407.08 363.75"/><polygon class="cls-658" points="393.28 499.83 407.08 363.75 315.09 423.94 393.28 499.83"/><polygon class="cls-659" points="321.99 554.78 393.28 499.83 315.09 423.94 321.99 554.78"/><polygon class="cls-660" points="342.69 1371.26 411.68 1263.96 305.89 1295.37 342.69 1371.26"/><polygon class="cls-661" points="411.68 1263.96 335.79 1209.01 305.89 1295.37 411.68 1263.96"/><polygon class="cls-662" points="338.09 107.29 377.19 7.85 303.59 34.02 338.09 107.29"/><polygon class="cls-663" points="338.09 107.29 303.59 34.02 296.69 47.1 338.09 107.29"/><polygon class="cls-664" points="324.29 1044.14 374.89 968.25 292.09 892.36 324.29 1044.14"/><polygon class="cls-665" points="430.08 892.36 379.49 782.46 292.09 892.36 430.08 892.36"/><polygon class="cls-666" points="374.89 968.25 430.08 892.36 292.09 892.36 374.89 968.25"/><polygon class="cls-667" points="340.39 719.65 365.69 580.96 292.09 662.08 340.39 719.65"/><polygon class="cls-668" points="365.69 580.96 321.99 554.78 292.09 662.08 365.69 580.96"/><polygon class="cls-669" points="324.29 1583.23 340.39 1494.25 289.79 1559.68 324.29 1583.23"/><polygon class="cls-670" points="384.08 298.33 356.49 159.63 280.59 277.39 384.08 298.33"/><polygon class="cls-671" points="315.09 423.94 384.08 298.33 280.59 277.39 315.09 423.94"/><polygon class="cls-672" points="335.79 1209.01 361.09 1172.37 275.99 1117.42 335.79 1209.01"/><polygon class="cls-673" points="361.09 1172.37 324.29 1044.14 275.99 1117.42 361.09 1172.37"/><polygon class="cls-674" points="292.09 892.36 379.49 782.46 266.79 826.94 292.09 892.36"/><polygon class="cls-675" points="379.49 782.46 340.39 719.65 262.19 806.01 379.49 782.46"/><polygon class="cls-676" points="266.79 826.94 379.49 782.46 262.19 806.01 266.79 826.94"/><polygon class="cls-677" points="340.39 719.65 292.09 662.08 262.19 806.01 340.39 719.65"/><polygon class="cls-678" points="338.09 107.29 296.69 47.1 257.59 185.8 338.09 107.29"/><polygon class="cls-679" points="356.49 159.63 338.09 107.29 257.59 185.8 356.49 159.63"/><polygon class="cls-680" points="280.59 277.39 356.49 159.63 257.59 185.8 280.59 277.39"/><polygon class="cls-107" points="305.89 1295.37 335.79 1209.01 239.19 1295.37 305.89 1295.37"/><polygon class="cls-681" points="262.19 806.01 292.09 662.08 239.19 662.08 262.19 806.01"/><polygon class="cls-682" points="335.79 1209.01 275.99 1117.42 232.29 1169.76 335.79 1209.01"/><polygon class="cls-683" points="239.19 1295.37 335.79 1209.01 232.29 1169.76 239.19 1295.37"/><polygon class="cls-684" points="289.79 1559.68 340.39 1494.25 229.99 1502.1 289.79 1559.68"/><polygon class="cls-685" points="340.39 1494.25 342.69 1371.26 229.99 1502.1 340.39 1494.25"/><polygon class="cls-686" points="292.09 662.08 321.99 554.78 227.69 591.42 292.09 662.08"/><polygon class="cls-687" points="239.19 662.08 292.09 662.08 227.69 591.42 239.19 662.08"/><polygon class="cls-688" points="280.59 277.39 257.59 185.8 225.39 300.94 280.59 277.39"/><polygon class="cls-689" points="315.09 423.94 280.59 277.39 225.39 300.94 315.09 423.94"/><polygon class="cls-690" points="289.79 1559.68 229.99 1502.1 223.09 1609.4 289.79 1559.68"/><polygon class="cls-691" points="324.29 1583.23 289.79 1559.68 223.09 1609.4 324.29 1583.23"/><polygon class="cls-692" points="455.38 1619.86 324.29 1583.23 223.09 1609.4 455.38 1619.86"/><polygon class="cls-693" points="324.29 1044.14 292.09 892.36 223.09 991.81 324.29 1044.14"/><polygon class="cls-694" points="275.99 1117.42 324.29 1044.14 223.09 991.81 275.99 1117.42"/><polygon class="cls-695" points="225.39 300.94 257.59 185.8 211.59 185.8 225.39 300.94"/><polygon class="cls-696" points="229.99 1502.1 342.69 1371.26 209.29 1384.34 229.99 1502.1"/><polygon class="cls-697" points="342.69 1371.26 305.89 1295.37 209.29 1384.34 342.69 1371.26"/><polygon class="cls-24" points="305.89 1295.37 239.19 1295.37 209.29 1384.34 305.89 1295.37"/><polygon class="cls-698" points="209.29 1384.34 239.19 1295.37 206.99 1292.75 209.29 1384.34"/><polygon class="cls-699" points="315.09 423.94 225.39 300.94 204.69 447.49 315.09 423.94"/><polygon class="cls-700" points="321.99 554.78 315.09 423.94 204.69 447.49 321.99 554.78"/><polygon class="cls-701" points="227.69 591.42 321.99 554.78 204.69 447.49 227.69 591.42"/><polygon class="cls-702" points="257.59 185.8 296.69 47.1 197.79 99.44 257.59 185.8"/><polygon class="cls-703" points="211.59 185.8 257.59 185.8 197.79 99.44 211.59 185.8"/><polygon class="cls-704" points="239.19 1295.37 232.29 1169.76 195.49 1214.24 239.19 1295.37"/><polygon class="cls-705" points="206.99 1292.75 239.19 1295.37 195.49 1214.24 206.99 1292.75"/><polygon class="cls-706" points="266.79 826.94 262.19 806.01 188.59 845.26 266.79 826.94"/><polygon class="cls-707" points="292.09 892.36 266.79 826.94 188.59 845.26 292.09 892.36"/><polygon class="cls-708" points="223.09 991.81 292.09 892.36 188.59 845.26 223.09 991.81"/><polygon class="cls-709" points="262.19 806.01 239.19 662.08 174.79 785.07 262.19 806.01"/><polygon class="cls-710" points="188.59 845.26 262.19 806.01 174.79 785.07 188.59 845.26"/><polygon class="cls-711" points="225.39 300.94 211.59 185.8 170.19 274.78 225.39 300.94"/><polygon class="cls-712" points="296.69 47.1 303.59 34.02 163.29 31.4 296.69 47.1"/><polygon class="cls-713" points="197.79 99.44 296.69 47.1 163.29 31.4 197.79 99.44"/><polygon class="cls-662" points="303.59 34.02 377.19 7.85 163.29 31.4 303.59 34.02"/><polygon class="cls-714" points="174.79 785.07 239.19 662.08 160.99 727.5 174.79 785.07"/><polygon class="cls-715" points="209.29 1384.34 206.99 1292.75 144.89 1376.49 209.29 1384.34"/><polygon class="cls-129" points="195.49 1214.24 232.29 1169.76 144.89 1112.19 195.49 1214.24"/><polygon class="cls-716" points="232.29 1169.76 275.99 1117.42 144.89 1112.19 232.29 1169.76"/><polygon class="cls-717" points="275.99 1117.42 223.09 991.81 144.89 1112.19 275.99 1117.42"/><polygon class="cls-718" points="223.09 1609.4 229.99 1502.1 133.4 1554.44 223.09 1609.4"/><polygon class="cls-719" points="197.79 99.44 163.29 31.4 133.4 96.83 197.79 99.44"/><polygon class="cls-720" points="227.69 591.42 204.69 447.49 131.09 486.75 227.69 591.42"/><polygon class="cls-721" points="239.19 662.08 227.69 591.42 131.09 680.39 239.19 662.08"/><polygon class="cls-722" points="160.99 727.5 239.19 662.08 131.09 680.39 160.99 727.5"/><polygon class="cls-723" points="133.4 1554.44 229.99 1502.1 124.2 1517.8 133.4 1554.44"/><polygon class="cls-724" points="209.29 1384.34 144.89 1376.49 124.2 1436.68 209.29 1384.34"/><polygon class="cls-725" points="229.99 1502.1 209.29 1384.34 124.2 1436.68 229.99 1502.1"/><polygon class="cls-726" points="124.2 1517.8 229.99 1502.1 124.2 1436.68 124.2 1517.8"/><polygon class="cls-727" points="223.09 991.81 188.59 845.26 119.6 970.87 223.09 991.81"/><polygon class="cls-728" points="144.89 1112.19 223.09 991.81 119.6 970.87 144.89 1112.19"/><polygon class="cls-729" points="170.19 274.78 211.59 185.8 119.6 141.31 170.19 274.78"/><polygon class="cls-730" points="211.59 185.8 197.79 99.44 119.6 141.31 211.59 185.8"/><polygon class="cls-731" points="197.79 99.44 133.4 96.83 119.6 141.31 197.79 99.44"/><polygon class="cls-732" points="206.99 1292.75 195.49 1214.24 117.3 1297.98 206.99 1292.75"/><polygon class="cls-733" points="144.89 1376.49 206.99 1292.75 117.3 1297.98 144.89 1376.49"/><polygon class="cls-734" points="119.6 970.87 188.59 845.26 117.3 834.79 119.6 970.87"/><path class="cls-735" d="M-243,1288.31l13.8-154.4Z" transform="translate(360.34 -453.51)"/><path class="cls-736" d="M-240.74,1424.39l-2.3-136.08Z" transform="translate(360.34 -453.51)"/><polygon class="cls-737" points="188.59 845.26 174.79 785.07 117.3 834.79 188.59 845.26"/><path class="cls-709" d="M-243,1288.31l71.3,10.47Z" transform="translate(360.34 -453.51)"/><polygon class="cls-738" points="227.69 591.42 131.09 486.75 115 599.27 227.69 591.42"/><polygon class="cls-739" points="131.09 680.39 227.69 591.42 115 599.27 131.09 680.39"/><polygon class="cls-740" points="131.09 486.75 204.69 447.49 94.3 389.92 131.09 486.75"/><polygon class="cls-741" points="204.69 447.49 225.39 300.94 94.3 389.92 204.69 447.49"/><polygon class="cls-742" points="225.39 300.94 170.19 274.78 94.3 389.92 225.39 300.94"/><polygon class="cls-743" points="119.6 141.31 133.4 96.83 94.3 62.81 119.6 141.31"/><polygon class="cls-743" points="133.4 96.83 163.29 31.4 94.3 62.81 133.4 96.83"/><polygon class="cls-744" points="117.3 834.79 131.09 680.39 89.7 774.61 117.3 834.79"/><polygon class="cls-745" points="117.3 834.79 117.3 834.79 89.7 774.61 117.3 834.79"/><polygon class="cls-746" points="117.3 834.79 174.79 785.07 89.7 774.61 117.3 834.79"/><polygon class="cls-747" points="160.99 727.5 131.09 680.39 89.7 774.61 160.99 727.5"/><polygon class="cls-744" points="131.09 680.39 117.3 834.79 89.7 774.61 131.09 680.39"/><polygon class="cls-748" points="174.79 785.07 160.99 727.5 89.7 774.61 174.79 785.07"/><polygon class="cls-749" points="133.4 1554.44 124.2 1517.8 78.2 1575.38 133.4 1554.44"/><polygon class="cls-750" points="223.09 1609.4 133.4 1554.44 78.2 1575.38 223.09 1609.4"/><polygon class="cls-730" points="94.3 389.92 170.19 274.78 78.2 298.33 94.3 389.92"/><polygon class="cls-751" points="124.2 1517.8 124.2 1436.68 66.7 1494.25 124.2 1517.8"/><polygon class="cls-72" points="78.2 1575.38 124.2 1517.8 66.7 1494.25 78.2 1575.38"/><polygon class="cls-752" points="124.2 1436.68 144.89 1376.49 62.1 1360.79 124.2 1436.68"/><polygon class="cls-753" points="144.89 1376.49 117.3 1297.98 62.1 1360.79 144.89 1376.49"/><polygon class="cls-714" points="131.09 680.39 115 599.27 55.2 703.95 131.09 680.39"/><polygon class="cls-754" points="89.7 774.61 131.09 680.39 55.2 703.95 89.7 774.61"/><polygon class="cls-755" points="115 599.27 131.09 486.75 55.2 465.81 115 599.27"/><polygon class="cls-756" points="131.09 486.75 94.3 389.92 55.2 465.81 131.09 486.75"/><polygon class="cls-703" points="170.19 274.78 119.6 141.31 55.2 235.52 170.19 274.78"/><polygon class="cls-757" points="78.2 298.33 170.19 274.78 55.2 235.52 78.2 298.33"/><polygon class="cls-18" points="62.1 1360.79 117.3 1297.98 52.9 1263.96 62.1 1360.79"/><polygon class="cls-758" points="195.49 1214.24 144.89 1112.19 52.9 1263.96 195.49 1214.24"/><polygon class="cls-759" points="117.3 1297.98 195.49 1214.24 52.9 1263.96 117.3 1297.98"/><polygon class="cls-760" points="89.7 774.61 55.2 703.95 52.9 737.97 89.7 774.61"/><polygon class="cls-761" points="144.89 1112.19 119.6 970.87 50.6 1086.02 144.89 1112.19"/><polygon class="cls-762" points="119.6 970.87 73.6 978.72 50.6 1086.02 119.6 970.87"/><polygon class="cls-763" points="94.3 62.81 163.29 31.4 46 44.49 94.3 62.81"/><polygon class="cls-764" points="55.2 235.52 119.6 141.31 34.5 133.46 55.2 235.52"/><polygon class="cls-765" points="119.6 141.31 94.3 62.81 34.5 133.46 119.6 141.31"/><polygon class="cls-766" points="94.3 62.81 46 44.49 34.5 133.46 94.3 62.81"/><polygon class="cls-767" points="89.7 774.61 52.9 737.97 29.9 889.75 89.7 774.61"/><polygon class="cls-768" points="117.3 834.79 89.7 774.61 29.9 889.75 117.3 834.79"/><polygon class="cls-769" points="119.6 970.87 117.3 834.79 29.9 889.75 119.6 970.87"/><polygon class="cls-770" points="73.6 978.72 119.6 970.87 29.9 889.75 73.6 978.72"/><polygon class="cls-771" points="66.7 1494.25 124.2 1436.68 20.7 1402.66 66.7 1494.25"/><polygon class="cls-752" points="124.2 1436.68 62.1 1360.79 20.7 1402.66 124.2 1436.68"/><polygon class="cls-772" points="55.2 235.52 34.5 133.46 6.9 136.08 55.2 235.52"/><polygon class="cls-773" points="34.5 133.46 46 44.49 6.9 136.08 34.5 133.46"/><polygon class="cls-774" points="55.2 703.95 115 599.27 4.6 588.8 55.2 703.95"/><polygon class="cls-775" points="115 599.27 55.2 465.81 4.6 588.8 115 599.27"/><polygon class="cls-776" points="55.2 235.52 6.9 136.08 4.6 261.69 55.2 235.52"/><polygon class="cls-777" points="78.2 298.33 55.2 235.52 4.6 261.69 78.2 298.33"/><polygon class="cls-778" points="62.1 1360.79 52.9 1263.96 4.6 1279.67 62.1 1360.79"/><polygon class="cls-779" points="20.7 1402.66 62.1 1360.79 4.6 1279.67 20.7 1402.66"/><polygon class="cls-780" points="20.7 1402.66 4.6 1279.67 4.6 1413.13 20.7 1402.66"/><polygon class="cls-781" points="66.7 1494.25 20.7 1402.66 4.6 1413.13 66.7 1494.25"/><polygon class="cls-782" points="29.9 889.75 52.9 737.97 2.3 683.01 29.9 889.75"/><polygon class="cls-783" points="52.9 737.97 55.2 703.95 2.3 683.01 52.9 737.97"/><polygon class="cls-784" points="55.2 703.95 4.6 588.8 2.3 683.01 55.2 703.95"/><polygon class="cls-785" points="2.3 683.01 4.6 588.8 2.3 491.98 2.3 683.01"/><polygon class="cls-786" points="4.6 588.8 55.2 465.81 2.3 491.98 4.6 588.8"/><polygon class="cls-787" points="2.3 491.98 55.2 465.81 2.3 387.3 2.3 491.98"/><polygon class="cls-788" points="55.2 465.81 94.3 389.92 2.3 387.3 55.2 465.81"/><polygon class="cls-789" points="94.3 389.92 78.2 298.33 2.3 387.3 94.3 389.92"/><polygon class="cls-790" points="78.2 298.33 4.6 261.69 2.3 387.3 78.2 298.33"/><polygon class="cls-791" points="29.9 889.75 2.3 683.01 2.3 949.94 29.9 889.75"/><polygon class="cls-792" points="73.6 978.72 29.9 889.75 2.3 949.94 73.6 978.72"/><polygon class="cls-793" points="50.6 1086.02 73.6 978.72 2.3 1057.23 50.6 1086.02"/><polygon class="cls-794" points="73.6 978.72 2.3 949.94 2.3 1057.23 73.6 978.72"/><polygon class="cls-795" points="50.6 1086.02 2.3 1057.23 2.3 1169.76 50.6 1086.02"/><polygon class="cls-796" points="4.6 1279.67 52.9 1263.96 2.3 1169.76 4.6 1279.67"/><polygon class="cls-797" points="52.9 1263.96 144.89 1112.19 2.3 1169.76 52.9 1263.96"/><polygon class="cls-798" points="144.89 1112.19 50.6 1086.02 2.3 1169.76 144.89 1112.19"/><polygon class="cls-799" points="78.2 1575.38 66.7 1494.25 0 1635.57 78.2 1575.38"/><polygon class="cls-726" points="66.7 1494.25 4.6 1413.13 0 1635.57 66.7 1494.25"/><polygon class="cls-800" points="223.09 1609.4 78.2 1575.38 0 1635.57 223.09 1609.4"/><polygon class="cls-801" points="455.38 1619.86 223.09 1609.4 0 1635.57 455.38 1619.86"/><polygon class="cls-802" points="4.6 261.69 6.9 136.08 0 0 4.6 261.69"/><polygon class="cls-803" points="6.9 136.08 46 44.49 0 0 6.9 136.08"/><polygon class="cls-804" points="46 44.49 163.29 31.4 0 0 46 44.49"/><polygon class="cls-805" points="163.29 31.4 377.19 7.85 0 0 163.29 31.4"/><rect class="cls-1" width="2299.9" height="1635.56"/><rect class="cls-1" x="20.7" y="36.64" width="2251.6" height="1572.76"/></g></g></svg>