<?xml version="1.0" encoding="utf-8"?>
<!-- Generator: Adobe Illustrator 23.1.0, SVG Export Plug-In . SVG Version: 6.00 Build 0)  -->
<svg version="1.1" id="Layer_1" xmlns="http://www.w3.org/2000/svg" xmlns:xlink="http://www.w3.org/1999/xlink" x="0px" y="0px"
	 viewBox="0 0 300 300" style="enable-background:new 0 0 300 300;" xml:space="preserve">
<style type="text/css">
	.st0{fill:#FFFFFF;}
	.st1{fill:#0E5EAE;}
	.st2{fill:#6D8D9E;}
</style>
<g>
	<circle class="st0" cx="150.5" cy="123.3" r="113.5"/>
	<g>
		<path class="st1" d="M139.5,118.5c0,13.6-0.1,27.2,0.1,40.7c0,2.7-0.7,3.3-3.3,2.8c-22.5-4.8-37.6-21.1-40.6-44
			c-3.5-26.2,5.3-47.4,26.2-63.6c5.2-4,5.2-4,1.4-9.4c-1.1-1.6-2.2-3.2-3.4-4.8c-2.7-3.9-2.8-3.9-7.1-1.6
			c-43.8,23.6-51.5,70-36.3,102.9c9.1,19.8,25.4,31.2,46.2,36.6c4.8,1.2,9.6,2.1,14.5,3c1.7,0.3,2.2,0.9,2.2,2.5
			c-0.1,16-0.1,32.1,0,48.1c0,1.8-0.6,2-2.2,1.8c-24.4-3.3-45.7-13.1-63.3-30.4c-24.2-23.8-35.1-52.9-33.2-86.7
			c2.6-48,39.7-90.8,86.7-100.1c38.7-7.6,72.7,2.1,101,29.6c19,18.5,29.8,41.4,32,68c2.9,34.7-8,64.5-32.6,89
			c-17.3,17.2-38.4,27.2-62.6,30.5c-1.9,0.3-2.3-0.2-2.3-2c0-15.9,0.1-31.9,0-47.8c0-1.7,0.5-2.2,2.1-2.6c6.8-1.4,13.7-2.6,20.2-5.2
			c26.3-10.8,41.7-30.1,45.5-58.4c2.4-18.3,0.1-35.8-9.5-51.7c-9.4-15.6-22.8-26-41.2-28.3c-20-2.5-36.5,8.4-39.6,29.7
			c-1.3,8.9-1,17.8-1.1,26.8C139.3,102,139.5,110.2,139.5,118.5z"/>
		<path class="st1" d="M163,115.7c0-13.8,0-27.6,0-41.4c0-3.8,0.3-7.6,1.7-11.2c2.6-6.4,7.6-9,14.3-7.3c6.8,1.8,12,5.8,16.1,11.3
			c10.7,14.2,13.6,30.3,11.9,47.6c-1.4,13.3-6,25.2-15.8,34.6c-7.1,6.9-15.9,10.8-25.6,12.7c-2.4,0.5-2.5-0.7-2.5-2.5
			c0-14.6,0-29.2,0-43.8C163.1,115.7,163.1,115.7,163,115.7z"/>
	</g>
	<g>
		<path class="st2" d="M76.7,280.7h-19c-2.3,0-4.5-0.4-6.6-1.3c-2.1-0.8-3.9-2-5.4-3.5c-1.6-1.5-2.8-3.3-3.7-5.3
			c-0.9-2.1-1.3-4.3-1.3-6.8c0-2.4,0.4-4.7,1.3-6.7c0.9-2.1,2.1-3.9,3.6-5.4c1.5-1.5,3.3-2.7,5.4-3.6c2.1-0.9,4.3-1.3,6.7-1.3
			c2.3,0,4.5,0.4,6.5,1.3c2,0.8,3.8,2,5.3,3.5c1.5,1.5,2.7,3.2,3.6,5.2c0.9,2,1.3,4.2,1.3,6.5c0,1.4-0.2,2.8-0.5,4.1
			c-0.3,1.3-0.8,2.6-1.4,3.8c-0.6,1.2-1.4,2.2-2.4,3.2c-0.9,0.9-2,1.7-3.2,2.2v0.1h9.8V280.7z M57.5,276.5c1.8,0,3.4-0.3,5-1
			c1.5-0.7,2.8-1.6,3.9-2.7c1.1-1.2,1.9-2.5,2.5-4.1c0.6-1.6,0.9-3.3,0.9-5.1c0-1.7-0.3-3.4-0.9-4.9c-0.6-1.5-1.5-2.8-2.5-4
			c-1.1-1.1-2.4-2-3.9-2.7c-1.5-0.7-3.1-1-4.9-1c-1.7,0-3.3,0.3-4.8,1c-1.5,0.7-2.8,1.5-3.8,2.7c-1.1,1.1-1.9,2.4-2.6,3.9
			c-0.6,1.5-0.9,3.1-0.9,4.8c0,1.8,0.3,3.5,0.9,5.1c0.6,1.6,1.4,3,2.5,4.1c1.1,1.2,2.3,2.1,3.8,2.8
			C54.1,276.2,55.7,276.5,57.5,276.5z"/>
		<path class="st2" d="M81.8,247.8V268c0,1,0.1,2.1,0.4,3.2c0.3,1.1,0.7,2.1,1.4,3c0.7,0.9,1.5,1.7,2.6,2.3c1.1,0.6,2.4,0.9,3.9,0.9
			c1.5,0,2.9-0.3,3.9-0.9c1.1-0.6,1.9-1.3,2.6-2.3s1.1-1.9,1.4-3s0.4-2.2,0.4-3.2v-20.2h4.5v20.9c0,1.9-0.3,3.7-1,5.2
			c-0.7,1.6-1.6,2.9-2.7,4.1c-1.1,1.1-2.5,2-4,2.7c-1.6,0.6-3.2,0.9-5,0.9c-1.8,0-3.5-0.3-5-0.9c-1.6-0.6-2.9-1.5-4-2.7
			c-1.1-1.1-2-2.5-2.7-4.1c-0.7-1.6-1-3.3-1-5.2v-20.9H81.8z"/>
		<path class="st2" d="M122,281.5c-2.3,0-4.4-0.4-6.4-1.3c-1.9-0.9-3.6-2.1-5-3.7c-1.4-1.6-2.5-3.4-3.3-5.5s-1.2-4.4-1.2-6.8
			c0-2.4,0.4-4.7,1.2-6.8c0.8-2.1,1.9-3.9,3.3-5.5c1.4-1.6,3-2.8,5-3.7c1.9-0.9,4.1-1.3,6.4-1.3c2.3,0,4.4,0.4,6.4,1.3
			c1.9,0.9,3.6,2.1,5,3.7c1.4,1.6,2.5,3.4,3.3,5.5c0.8,2.1,1.2,4.4,1.2,6.8c0,2.5-0.4,4.7-1.2,6.8c-0.8,2.1-1.9,3.9-3.3,5.5
			c-1.4,1.6-3,2.8-5,3.7C126.5,281.1,124.3,281.5,122,281.5z M122,277.4c1.7,0,3.3-0.3,4.7-1c1.4-0.7,2.6-1.6,3.6-2.8
			c1-1.2,1.8-2.6,2.3-4.2c0.5-1.6,0.8-3.3,0.8-5.1c0-1.8-0.3-3.5-0.8-5.1c-0.5-1.6-1.3-3-2.3-4.2c-1-1.2-2.2-2.1-3.6-2.8
			c-1.4-0.7-3-1-4.7-1c-1.7,0-3.3,0.3-4.7,1c-1.4,0.7-2.6,1.6-3.6,2.8c-1,1.2-1.8,2.6-2.3,4.2c-0.5,1.6-0.8,3.3-0.8,5.1
			c0,1.8,0.3,3.5,0.8,5.1c0.5,1.6,1.3,3,2.3,4.2c1,1.2,2.2,2.1,3.6,2.8C118.7,277,120.3,277.4,122,277.4z"/>
		<path class="st2" d="M147.9,263.4l-11.1-15.6h5.7l8.6,12.7l8.5-12.7h5.6l-11,15.6l12.1,17.4h-5.9l-9.4-14.3l-9.5,14.3h-5.5
			L147.9,263.4z"/>
		<path class="st2" d="M170.4,247.8h24v4.2h-18.9v9.8h17.6v4.2h-17.6v10.6h19.9v4.2h-24.9V247.8z"/>
		<path class="st2" d="M198.8,247.8h6.3l19.5,27.1h0.1v-27.1h4.8v32.9h-6.1l-19.7-27.1h-0.1v27.1h-4.8V247.8z"/>
		<path class="st2" d="M244,252h-11.9v-4.2h28.8v4.2H249v28.7h-5V252z"/>
	</g>
</g>
</svg>
