<svg id="Layer_1" data-name="Layer 1" xmlns="http://www.w3.org/2000/svg" viewBox="0 0 132.01 158.03"><defs><style>.cls-1{fill:#fff;}.cls-2{fill:#0e5eae;}.cls-3{fill:#6d8d9e;}</style></defs><title>largelogo</title><circle class="cls-1" cx="66" cy="66" r="66"/><path class="cls-2" d="M778.56,1261.16c0,7.9,0,15.8,0,23.69,0,1.59-.42,2-1.93,1.62-13.09-2.81-21.85-12.27-23.61-25.6q-3-22.87,15.27-37c3-2.33,3-2.33.84-5.45-.65-.94-1.3-1.86-2-2.79-1.58-2.25-1.61-2.3-4.11-1-25.48,13.71-29.94,40.69-21.12,59.87,5.3,11.52,14.8,18.15,26.9,21.26,2.77.71,5.6,1.24,8.42,1.73,1,.16,1.28.5,1.28,1.47q0,14,0,28c0,1-.35,1.16-1.26,1-14.2-1.91-26.6-7.64-36.83-17.71-14-13.85-20.39-30.77-19.32-50.43,1.51-27.91,23.08-52.83,50.44-58.2,22.51-4.43,42.26,1.23,58.72,17.19A60.78,60.78,0,0,1,849,1258.47c1.71,20.16-4.67,37.5-19,51.75a62.35,62.35,0,0,1-36.4,17.77c-1.11.15-1.33-.14-1.32-1.16q0-13.92,0-27.83c0-1,.31-1.31,1.25-1.51,4-.84,8-1.5,11.77-3,15.3-6.26,24.27-17.49,26.48-34,1.42-10.62,0-20.81-5.52-30.1-5.44-9.08-13.26-15.12-24-16.45-11.62-1.44-21.22,4.9-23,17.28-.76,5.18-.57,10.38-.66,15.57C778.49,1251.58,778.56,1256.37,778.56,1261.16Z" transform="translate(-718.99 -1198)"/><path class="cls-2" d="M792.26,1259.55q0-12,0-24a17.64,17.64,0,0,1,1-6.52c1.49-3.75,4.44-5.26,8.32-4.25a16.94,16.94,0,0,1,9.35,6.57c6.21,8.24,7.94,17.64,6.9,27.67-.79,7.71-3.5,14.65-9.17,20.13a29.19,29.19,0,0,1-14.89,7.4c-1.37.28-1.44-.4-1.44-1.45,0-8.5,0-17,0-25.5Z" transform="translate(-718.99 -1198)"/><path class="cls-3" d="M742,1355.54H731a10.14,10.14,0,0,1-3.85-.73,9.74,9.74,0,0,1-3.16-2,9.3,9.3,0,0,1-2.14-3.1,9.78,9.78,0,0,1-.79-3.93,10.06,10.06,0,0,1,.76-3.91,9.55,9.55,0,0,1,5.24-5.2,10,10,0,0,1,3.91-.74,9.65,9.65,0,0,1,9,5.77,9.39,9.39,0,0,1,.77,3.8,10.11,10.11,0,0,1-.29,2.4,9.34,9.34,0,0,1-.84,2.21,8,8,0,0,1-1.38,1.84,6.42,6.42,0,0,1-1.88,1.29v.06H742Zm-11.15-2.43a7,7,0,0,0,2.88-.59,6.67,6.67,0,0,0,2.24-1.59,7.11,7.11,0,0,0,1.45-2.4,8.21,8.21,0,0,0,.52-3,7.67,7.67,0,0,0-.53-2.84,6.84,6.84,0,0,0-1.48-2.3,7,7,0,0,0-5.08-2.11,6.8,6.8,0,0,0-2.8.57,7.23,7.23,0,0,0-4.27,6.63,8.43,8.43,0,0,0,.52,3,7.25,7.25,0,0,0,1.45,2.41,6.85,6.85,0,0,0,2.23,1.62A6.73,6.73,0,0,0,730.88,1353.11Z" transform="translate(-718.99 -1198)"/><path class="cls-3" d="M745,1336.38v11.75a7.64,7.64,0,0,0,.24,1.85,5.27,5.27,0,0,0,.81,1.77,4.45,4.45,0,0,0,1.49,1.33,4.62,4.62,0,0,0,2.27.51,4.69,4.69,0,0,0,2.28-.51,4.42,4.42,0,0,0,1.48-1.33,5.5,5.5,0,0,0,.82-1.77,7.64,7.64,0,0,0,.24-1.85v-11.75h2.6v12.15a7.86,7.86,0,0,1-.57,3,7.27,7.27,0,0,1-1.57,2.37,7.05,7.05,0,0,1-2.35,1.54,8.19,8.19,0,0,1-5.85,0,7,7,0,0,1-2.35-1.54,7.11,7.11,0,0,1-1.57-2.37,7.86,7.86,0,0,1-.57-3v-12.15Z" transform="translate(-718.99 -1198)"/><path class="cls-3" d="M768.41,1356a8.85,8.85,0,0,1-3.7-.77,8.56,8.56,0,0,1-2.9-2.13,9.87,9.87,0,0,1-1.9-3.19,12,12,0,0,1,0-8,10,10,0,0,1,1.9-3.19,8.54,8.54,0,0,1,2.9-2.12,9.3,9.3,0,0,1,7.41,0,8.54,8.54,0,0,1,2.9,2.12,9.78,9.78,0,0,1,1.89,3.19,11.82,11.82,0,0,1,0,8,9.67,9.67,0,0,1-1.89,3.19,8.56,8.56,0,0,1-2.9,2.13A8.89,8.89,0,0,1,768.41,1356Zm0-2.44a6,6,0,0,0,2.74-.61,6.53,6.53,0,0,0,2.09-1.63,7.61,7.61,0,0,0,1.35-2.42,9.59,9.59,0,0,0,0-5.93,7.4,7.4,0,0,0-1.35-2.42,6.56,6.56,0,0,0-2.09-1.64,6.44,6.44,0,0,0-5.47,0,6.45,6.45,0,0,0-2.09,1.64,7.22,7.22,0,0,0-1.35,2.42,9.59,9.59,0,0,0,0,5.93,7.42,7.42,0,0,0,1.35,2.42,6.43,6.43,0,0,0,2.09,1.63A6,6,0,0,0,768.41,1353.59Z" transform="translate(-718.99 -1198)"/><path class="cls-3" d="M783.46,1345.47l-6.44-9.09h3.33l5,7.36,4.92-7.36h3.25l-6.38,9.07,7,10.09h-3.41l-5.49-8.31-5.52,8.31h-3.22Z" transform="translate(-718.99 -1198)"/><path class="cls-3" d="M796.56,1336.38H810.5v2.44h-11v5.71h10.24V1347H799.49v6.15H811v2.43H796.56Z" transform="translate(-718.99 -1198)"/><path class="cls-3" d="M813.09,1336.38h3.66l11.33,15.75h.06v-15.75h2.79v19.16h-3.54l-11.45-15.75h-.06v15.75h-2.79Z" transform="translate(-718.99 -1198)"/><path class="cls-3" d="M839.39,1338.82h-6.92v-2.44h16.75v2.44H842.3v16.72h-2.91Z" transform="translate(-718.99 -1198)"/></svg>