<?xml version="1.0" encoding="utf-8"?>
<!-- Generator: Adobe Illustrator 23.1.0, SVG Export Plug-In . SVG Version: 6.00 Build 0)  -->
<svg version="1.1"
	 id="svg8" inkscape:version="0.92.3 (2405546, 2018-03-11)" sodipodi:docname="Vulcano Logo &amp; Text Banner v3.2 Gradient.svg" xmlns:cc="http://creativecommons.org/ns#" xmlns:dc="http://purl.org/dc/elements/1.1/" xmlns:inkscape="http://www.inkscape.org/namespaces/inkscape" xmlns:rdf="http://www.w3.org/1999/02/22-rdf-syntax-ns#" xmlns:sodipodi="http://sodipodi.sourceforge.net/DTD/sodipodi-0.dtd" xmlns:svg="http://www.w3.org/2000/svg"
	 xmlns="http://www.w3.org/2000/svg" xmlns:xlink="http://www.w3.org/1999/xlink" x="0px" y="0px" viewBox="0 0 1657 2945.7"
	 style="enable-background:new 0 0 1657 2945.7;" xml:space="preserve">
<style type="text/css">
	.st0{fill:#FFFFFF;}
	.st1{fill:#0E5EAE;}
</style>
<sodipodi:namedview  bordercolor="#666666" borderopacity="1.0" fit-margin-bottom="0" fit-margin-left="0" fit-margin-right="0" fit-margin-top="0" id="base" inkscape:current-layer="layer1" inkscape:cx="848.03575" inkscape:cy="1854.76" inkscape:document-units="mm" inkscape:pageopacity="0.0" inkscape:pageshadow="2" inkscape:window-height="1676" inkscape:window-maximized="0" inkscape:window-width="1567" inkscape:window-x="2995" inkscape:window-y="33" inkscape:zoom="0.35" pagecolor="#ffffff" showgrid="false">
	</sodipodi:namedview>
<circle class="st0" cx="864.8" cy="1132.7" r="412.4"/>
<g>
	<path class="st1" d="M824.6,1114.9c0,49.4-0.3,98.7,0.2,148.1c0.1,9.9-2.6,12.1-12,10.1c-81.8-17.6-136.6-76.7-147.6-159.9
		c-12.6-95.4,19.4-172.3,95.4-231.1c18.8-14.5,18.8-14.5,5.3-34.1c-4-5.8-8.1-11.6-12.2-17.4c-9.9-14-10.1-14.3-25.7-5.9
		c-159.2,85.7-187.1,254.3-132,374.1c33.1,72,92.5,113.5,168.1,132.9c17.3,4.4,35,7.7,52.6,10.8c6.1,1.1,8,3.1,8,9.2
		c-0.2,58.3-0.2,116.7,0,175c0,6.5-2.2,7.3-7.9,6.5c-88.7-11.9-166.2-47.7-230.1-110.7c-87.8-86.5-127.4-192.3-120.8-315.1
		c9.4-174.4,144.2-330.1,315.2-363.7c140.7-27.6,264.1,7.7,366.9,107.5c69.2,67.1,108.2,150.5,116.3,247
		c10.7,126-29.2,234.3-118.6,323.3c-62.8,62.6-139.4,98.9-227.5,111c-6.9,1-8.3-0.8-8.3-7.2c0.2-58,0.2-115.9,0-173.9
		c0-6.1,1.9-8.2,7.8-9.4c24.8-5.3,49.9-9.4,73.6-19.1c95.6-39.1,151.6-109.3,165.4-212.2c8.9-66.4,0.3-130-34.5-188.1
		c-34-56.7-82.9-94.5-149.8-102.8c-72.6-9-132.5,30.6-143.8,107.9c-4.7,32.4-3.5,64.9-4.1,97.3
		C824.2,1055.1,824.6,1085,824.6,1114.9z"/>
	<path class="st1" d="M910.2,1104.9c0-50.1,0-100.2,0-150.3c0-13.9,1.2-27.7,6.4-40.7c9.3-23.4,27.7-32.9,52-26.6
		c24.6,6.4,43.4,21.2,58.5,41.1c38.8,51.5,49.6,110.2,43.1,172.9c-5,48.2-21.9,91.6-57.3,125.8c-25.9,25-57.8,39.1-93,46.3
		c-8.6,1.7-9-2.5-9-9.1c0.2-53.1,0.1-106.2,0.1-159.3C910.6,1104.9,910.4,1104.9,910.2,1104.9z"/>
</g>
<g>
	<g>
		<path class="st0" d="M527.3,1705.2c-8.5,0-16.6-1.5-24.2-4.6c-7.6-3.1-14.3-7.4-19.9-12.8c-5.7-5.4-10.2-12-13.5-19.5
			c-3.3-7.5-4.9-15.9-4.9-24.8c0-8.8,1.6-17.1,4.8-24.6c3.2-7.5,7.6-14.1,13.2-19.7c5.6-5.5,12.3-9.9,19.8-13
			c7.5-3.1,15.8-4.7,24.6-4.7c8.5,0,16.5,1.5,23.9,4.6c7.4,3.1,14,7.3,19.5,12.7c5.5,5.4,10,11.8,13.2,19.1c3.2,7.3,4.9,15.4,4.9,24
			c0,5.1-0.6,10.2-1.8,15.1c-1.2,4.9-3,9.6-5.3,13.9c-2.3,4.3-5.3,8.2-8.7,11.6c-3.1,3.1-6.7,5.6-10.6,7.6h34.5v15.2H527.3z
			 M526.6,1597.7c-6.2,0-12,1.2-17.3,3.5c-5.3,2.3-9.9,5.5-13.8,9.5c-3.9,4-7,8.7-9.2,14.1c-2.2,5.4-3.3,11.2-3.3,17.3
			c0,6.5,1.1,12.6,3.2,18.3c2.1,5.7,5.1,10.7,8.9,14.9c3.8,4.2,8.5,7.6,13.8,10c5.3,2.4,11.3,3.7,17.7,3.7c6.4,0,12.4-1.2,17.8-3.6
			c5.4-2.4,10-5.7,13.9-9.9c3.8-4.2,6.8-9.1,8.9-14.8c2.1-5.7,3.2-11.8,3.2-18.3c0-6.2-1.1-12.1-3.3-17.6
			c-2.2-5.4-5.2-10.2-9.1-14.2c-3.9-4-8.6-7.2-13.9-9.5C538.9,1598.9,533,1597.7,526.6,1597.7z"/>
		<path d="M527.1,1582c8.5,0,16.4,1.5,23.8,4.6c7.4,3,13.8,7.2,19.4,12.6c5.5,5.4,9.9,11.7,13.1,18.9c3.2,7.3,4.8,15.2,4.8,23.8
			c0,5.1-0.6,10.1-1.8,15c-1.2,4.9-2.9,9.5-5.2,13.8c-2.3,4.3-5.2,8.1-8.6,11.5c-3.4,3.4-7.4,6.1-11.8,8.1v0.3h35.5v14.2h-69
			c-8.5,0-16.5-1.5-24-4.6c-7.6-3-14.1-7.3-19.8-12.7c-5.6-5.4-10.1-11.9-13.4-19.4c-3.3-7.5-4.9-15.7-4.9-24.6
			c0-8.8,1.6-16.9,4.7-24.4c3.2-7.5,7.5-14,13.1-19.5c5.6-5.5,12.1-9.8,19.6-12.9C510.2,1583.5,518.3,1582,527.1,1582 M526.6,1689.5
			c6.5,0,12.5-1.2,18-3.6c5.5-2.4,10.1-5.7,14-10c3.9-4.2,6.9-9.2,9-15c2.1-5.7,3.2-11.9,3.2-18.4c0-6.3-1.1-12.2-3.3-17.8
			c-2.2-5.5-5.3-10.3-9.2-14.4c-3.9-4.1-8.6-7.3-14-9.6c-5.4-2.4-11.3-3.6-17.8-3.6c-6.3,0-12.2,1.2-17.5,3.6
			c-5.4,2.4-10,5.6-14,9.6s-7,8.8-9.3,14.3c-2.3,5.5-3.4,11.3-3.4,17.5c0,6.5,1.1,12.7,3.2,18.4c2.1,5.7,5.2,10.8,9,15
			c3.9,4.3,8.5,7.7,14,10.1C514.1,1688.3,520.1,1689.5,526.6,1689.5 M527.1,1581c-8.9,0-17.2,1.6-24.8,4.7
			c-7.6,3.1-14.3,7.6-19.9,13.1c-5.7,5.6-10.1,12.3-13.3,19.9c-3.2,7.6-4.8,15.9-4.8,24.8c0,9,1.7,17.4,5,25
			c3.3,7.6,7.9,14.2,13.6,19.7c5.7,5.5,12.5,9.8,20.1,12.9c7.6,3.1,15.8,4.6,24.4,4.6h69h1v-1v-14.2v-1h-1h-32
			c3.3-1.8,6.3-4.1,9-6.7c3.5-3.4,6.5-7.4,8.8-11.7c2.3-4.3,4.1-9.1,5.3-14c1.2-4.9,1.8-10.1,1.8-15.2c0-8.7-1.7-16.8-4.9-24.2
			c-3.2-7.4-7.7-13.8-13.3-19.3c-5.6-5.4-12.2-9.7-19.7-12.8C543.8,1582.5,535.7,1581,527.1,1581L527.1,1581z M526.6,1688.5
			c-6.4,0-12.3-1.2-17.5-3.6c-5.3-2.4-9.8-5.7-13.6-9.9c-3.8-4.2-6.8-9.1-8.9-14.7c-2.1-5.6-3.1-11.7-3.1-18.1
			c0-6,1.1-11.8,3.3-17.1c2.2-5.3,5.3-10,9.1-14c3.8-3.9,8.4-7.1,13.6-9.4c5.2-2.3,10.9-3.5,17.1-3.5c6.3,0,12.1,1.2,17.4,3.5
			c5.3,2.3,9.9,5.5,13.7,9.4c3.8,3.9,6.9,8.7,9,14c2.1,5.4,3.2,11.2,3.2,17.4c0,6.4-1.1,12.5-3.1,18.1c-2.1,5.6-5.1,10.5-8.8,14.6
			c-3.8,4.1-8.4,7.4-13.7,9.7C538.9,1687.3,533,1688.5,526.6,1688.5L526.6,1688.5z"/>
	</g>
	<g>
		<path class="st0" d="M645.1,1708.3c-6.6,0-12.8-1.1-18.4-3.4c-5.7-2.3-10.7-5.5-14.9-9.7c-4.2-4.2-7.5-9.2-9.9-15
			c-2.4-5.7-3.6-12.2-3.6-19.2v-76.4h17.2v73.9c0,3.7,0.5,7.5,1.5,11.5c1,3.9,2.7,7.6,5,10.9c2.3,3.3,5.4,6,9.1,8.1
			c3.7,2.1,8.4,3.1,14,3.1c5.5,0,10.2-1.1,14-3.1c3.7-2.1,6.8-4.8,9.1-8.1c2.3-3.3,4-7,5-10.9c1-3.9,1.5-7.8,1.5-11.5v-73.9h17.2
			v76.4c0,7-1.2,13.5-3.6,19.2c-2.4,5.7-5.7,10.8-9.9,15c-4.2,4.2-9.2,7.5-14.9,9.7C657.8,1707.1,651.6,1708.3,645.1,1708.3z"/>
		<path d="M691.4,1585v75.9c0,7-1.2,13.3-3.6,19c-2.4,5.7-5.6,10.6-9.8,14.8c-4.2,4.2-9.1,7.4-14.7,9.6c-5.6,2.3-11.7,3.4-18.3,3.4
			c-6.5,0-12.6-1.1-18.3-3.4c-5.6-2.3-10.5-5.5-14.7-9.6c-4.2-4.2-7.4-9.1-9.8-14.8c-2.4-5.7-3.6-12-3.6-19V1585H615v73.4
			c0,3.7,0.5,7.6,1.5,11.6c1,4,2.7,7.7,5.1,11.1s5.5,6.1,9.3,8.3c3.8,2.1,8.6,3.2,14.2,3.2c5.6,0,10.4-1.1,14.2-3.2
			c3.8-2.1,6.9-4.9,9.3-8.3s4.1-7.1,5.1-11.1c1-4,1.5-7.9,1.5-11.6V1585H691.4 M692.4,1584h-1h-16.2h-1v1v73.4
			c0,3.6-0.5,7.4-1.5,11.3c-1,3.9-2.6,7.5-4.9,10.7c-2.3,3.2-5.3,5.9-9,8c-3.7,2-8.3,3.1-13.7,3.1c-5.4,0-10.1-1-13.7-3.1
			c-3.7-2.1-6.7-4.7-9-8c-2.3-3.3-3.9-6.9-4.9-10.7c-1-3.9-1.5-7.7-1.5-11.3V1585v-1h-1h-16.2h-1v1v75.9c0,7.1,1.2,13.6,3.6,19.4
			c2.4,5.8,5.8,10.9,10,15.1c4.2,4.2,9.3,7.6,15,9.9c5.7,2.3,12,3.5,18.6,3.5c6.6,0,12.9-1.2,18.6-3.5c5.7-2.3,10.8-5.6,15-9.9
			c4.2-4.2,7.6-9.3,10-15.1c2.4-5.8,3.6-12.3,3.6-19.4V1585V1584L692.4,1584z"/>
	</g>
	<g>
		<path class="st0" d="M761.2,1708.3c-8.4,0-16.3-1.6-23.4-4.9c-7.1-3.2-13.2-7.7-18.3-13.4c-5-5.7-9.1-12.4-11.9-20.1
			c-2.9-7.7-4.3-16.1-4.3-25c0-8.9,1.4-17.3,4.3-25c2.9-7.7,6.9-14.5,11.9-20.1c5.1-5.7,11.2-10.2,18.3-13.4
			c7.1-3.2,14.9-4.9,23.4-4.9c8.4,0,16.3,1.6,23.4,4.9c7.1,3.2,13.2,7.7,18.3,13.4c5,5.7,9.1,12.4,11.9,20.1
			c2.9,7.7,4.3,16.1,4.3,25c0,8.9-1.5,17.3-4.3,25c-2.9,7.7-6.9,14.4-11.9,20.1c-5.1,5.7-11.2,10.2-18.3,13.4
			C777.5,1706.6,769.6,1708.3,761.2,1708.3z M761.2,1597.7c-6.2,0-11.9,1.3-16.9,3.8c-5,2.5-9.3,5.9-12.9,10.1
			c-3.6,4.2-6.4,9.3-8.3,15c-1.9,5.7-2.9,11.9-2.9,18.4c0,6.5,1,12.6,2.9,18.4c1.9,5.7,4.7,10.8,8.3,15c3.6,4.2,7.9,7.6,12.9,10.1
			c5,2.5,10.7,3.8,16.9,3.8c6.2,0,11.9-1.3,16.9-3.8c5-2.5,9.3-5.9,12.9-10.1c3.6-4.2,6.4-9.3,8.3-15c1.9-5.7,2.9-11.9,2.9-18.4
			c0-6.4-1-12.6-2.9-18.4c-1.9-5.7-4.7-10.8-8.3-15c-3.6-4.2-7.9-7.6-12.9-10.1C773.1,1598.9,767.4,1597.7,761.2,1597.7z"/>
		<path d="M761.2,1582c8.4,0,16.1,1.6,23.2,4.8c7.1,3.2,13.1,7.6,18.1,13.3c5,5.6,9,12.3,11.8,20c2.9,7.7,4.3,16,4.3,24.9
			c0,8.9-1.4,17.2-4.3,24.9c-2.9,7.7-6.8,14.3-11.8,20c-5,5.6-11.1,10.1-18.1,13.3c-7.1,3.2-14.8,4.8-23.2,4.8
			c-8.4,0-16.1-1.6-23.2-4.8c-7.1-3.2-13.1-7.6-18.1-13.3c-5-5.6-9-12.3-11.8-20c-2.9-7.7-4.3-16-4.3-24.9c0-8.9,1.4-17.2,4.3-24.9
			c2.9-7.7,6.8-14.3,11.8-20c5-5.6,11.1-10.1,18.1-13.3C745.1,1583.6,752.8,1582,761.2,1582 M761.2,1692.6c6.3,0,12-1.3,17.1-3.8
			c5.1-2.5,9.4-5.9,13.1-10.2c3.6-4.3,6.4-9.3,8.4-15.1c2-5.8,3-12,3-18.5c0-6.5-1-12.7-3-18.5c-2-5.8-4.8-10.8-8.4-15.1
			c-3.6-4.3-8-7.7-13.1-10.2c-5.1-2.5-10.8-3.8-17.1-3.8s-12,1.3-17.1,3.8c-5.1,2.5-9.4,5.9-13.1,10.2c-3.6,4.3-6.4,9.3-8.4,15.1
			c-2,5.8-3,12-3,18.5c0,6.5,1,12.7,3,18.5c2,5.8,4.8,10.9,8.4,15.1c3.6,4.3,8,7.7,13.1,10.2
			C749.2,1691.3,754.9,1692.6,761.2,1692.6 M761.2,1581c-8.5,0-16.4,1.7-23.6,4.9c-7.1,3.3-13.3,7.8-18.5,13.5
			c-5.1,5.7-9.1,12.5-12,20.3c-2.9,7.7-4.3,16.2-4.3,25.2c0,9,1.5,17.5,4.3,25.2c2.9,7.7,6.9,14.6,12,20.3
			c5.1,5.7,11.3,10.3,18.5,13.5c7.1,3.3,15.1,4.9,23.6,4.9c8.5,0,16.4-1.7,23.6-4.9c7.1-3.3,13.4-7.8,18.5-13.5
			c5.1-5.7,9.1-12.5,12-20.3c2.9-7.7,4.3-16.2,4.3-25.2c0-9-1.5-17.5-4.3-25.2c-2.9-7.7-6.9-14.6-12-20.3
			c-5.1-5.7-11.3-10.3-18.5-13.5C777.6,1582.6,769.7,1581,761.2,1581L761.2,1581z M761.2,1691.6c-6.1,0-11.7-1.2-16.7-3.7
			c-4.9-2.5-9.2-5.8-12.7-10c-3.5-4.2-6.3-9.2-8.2-14.8c-1.9-5.7-2.9-11.8-2.9-18.2c0-6.4,1-12.5,2.9-18.2
			c1.9-5.7,4.7-10.6,8.2-14.8c3.5-4.2,7.8-7.5,12.7-10c4.9-2.5,10.5-3.7,16.7-3.7c6.1,0,11.7,1.2,16.7,3.7c4.9,2.5,9.2,5.8,12.7,10
			c3.5,4.2,6.3,9.2,8.2,14.8c1.9,5.7,2.9,11.8,2.9,18.2c0,6.4-1,12.5-2.9,18.2c-1.9,5.7-4.7,10.6-8.2,14.8c-3.5,4.2-7.8,7.5-12.7,10
			C772.9,1690.3,767.3,1691.6,761.2,1691.6L761.2,1691.6z"/>
	</g>
	<g>
		<polygon class="st0" points="900.4,1705.2 866.4,1653.7 832.1,1705.2 810.8,1705.2 854.6,1641.8 814,1584.5 836,1584.5 
			866.9,1630.1 897.4,1584.5 918.9,1584.5 878.7,1641.7 923,1705.2 		"/>
		<path d="M917.9,1585l-39.9,56.6l44,63.1h-21.3l-34.3-51.9l-34.5,51.9h-20.1l43.5-62.9L815,1585h20.8l31.1,46l30.8-46H917.9
			 M919.9,1584h-1.9h-20.3h-0.5l-0.3,0.4l-29.9,44.8l-30.3-44.8l-0.3-0.4h-0.5H815H813l1.1,1.6l39.8,56.2l-43.1,62.3l-1.1,1.6h1.9
			h20.1h0.5l0.3-0.4l33.7-50.7l33.5,50.7l0.3,0.4h0.5H922h1.9l-1.1-1.6l-43.6-62.5l39.5-56.1L919.9,1584L919.9,1584z"/>
	</g>
	<g>
		<polygon class="st0" points="936.6,1705.2 936.6,1584.5 1024.6,1584.5 1024.6,1600.7 955.8,1600.7 955.8,1635.4 1019.9,1635.4 
			1019.9,1651.6 955.8,1651.6 955.8,1689 1028.1,1689 1028.1,1705.2 		"/>
		<path d="M1024.1,1585v15.2h-68.8v35.7h64v15.2h-64v38.4h72.2v15.2h-90.5V1585H1024.1 M1025.1,1584h-1h-87.1h-1v1v119.7v1h1h90.5h1
			v-1v-15.2v-1h-1h-71.2v-36.4h63h1v-1v-15.2v-1h-1h-63v-33.7h67.8h1v-1V1585V1584L1025.1,1584z"/>
	</g>
	<g>
		<polygon class="st0" points="1129.4,1705.2 1058.3,1607.4 1058.3,1705.2 1039.9,1705.2 1039.9,1584.5 1063.5,1584.5 
			1133.9,1682.4 1133.9,1584.5 1152.3,1584.5 1152.3,1705.2 		"/>
		<path d="M1151.8,1585v119.7h-22.1l-71.5-98.4h-0.4v98.4h-17.4V1585h22.9l70.8,98.4h0.4V1585H1151.8 M1152.8,1584h-1h-17.4h-1v1
			v95.8l-69.4-96.4l-0.3-0.4h-0.5h-22.9h-1v1v119.7v1h1h17.4h1v-1v-95.8l70.1,96.4l0.3,0.4h0.5h22.1h1v-1V1585V1584L1152.8,1584z"/>
	</g>
	<g>
		<polygon class="st0" points="1204.2,1705.2 1204.2,1600.7 1160.9,1600.7 1160.9,1584.5 1266.6,1584.5 1266.6,1600.7 
			1223.4,1600.7 1223.4,1705.2 		"/>
		<path d="M1266.1,1585v15.2h-43.2v104.5h-18.2v-104.5h-43.2V1585H1266.1 M1267.1,1584h-1h-104.7h-1v1v15.2v1h1h42.2v103.5v1h1h18.2
			h1v-1v-103.5h42.2h1v-1V1585V1584L1267.1,1584z"/>
	</g>
</g>
</svg>
